<svg xmlns="http://www.w3.org/2000/svg" xmlns:xlink="http://www.w3.org/1999/xlink" xmlns:lucid="lucid" width="1760" height="1360"><g transform="translate(0 0)" lucid:page-tab-id="xIvGCpHraY2d"><path d="M0 0h1760v1360H0z" fill="#fff"/><path d="M40 623a6 6 0 0 1 6-6h668a6 6 0 0 1 6 6v188a6 6 0 0 1-6 6H46a6 6 0 0 1-6-6z" fill="#fff"/><path d="M40 689v33h680v-33M40 753v33h680v-33" fill="#e6e6e6"/><path d="M40 623a6 6 0 0 1 6-6h668a6 6 0 0 1 6 6v188a6 6 0 0 1-6 6H46a6 6 0 0 1-6-6zM40 657h680M280.2 657v160" stroke="#3a414a" fill="none"/><use xlink:href="#a" transform="matrix(1,0,0,1,50,617) translate(298.51851851851853 24.444444444444443)"/><use xlink:href="#b" transform="matrix(1,0,0,1,45,659.5) translate(0 17.1)"/><use xlink:href="#c" transform="matrix(1,0,0,1,285.21052631578925,659.5) translate(0 17.1)"/><use xlink:href="#d" transform="matrix(1,0,0,1,45,691.5) translate(0 17.1)"/><use xlink:href="#e" transform="matrix(1,0,0,1,285.21052631578925,691.5) translate(0 17.1)"/><use xlink:href="#f" transform="matrix(1,0,0,1,45,723.5) translate(0 17.1)"/><use xlink:href="#f" transform="matrix(1,0,0,1,285.21052631578925,723.5) translate(0 17.1)"/><use xlink:href="#g" transform="matrix(1,0,0,1,45,755.5) translate(0 17.1)"/><use xlink:href="#c" transform="matrix(1,0,0,1,285.21052631578925,755.5) translate(0 17.1)"/><use xlink:href="#h" transform="matrix(1,0,0,1,45,787.5) translate(0 17.1)"/><use xlink:href="#c" transform="matrix(1,0,0,1,285.21052631578925,787.5) translate(0 17.1)"/><path d="M780 903a6 6 0 0 1 6-6h408a6 6 0 0 1 6 6v176a6 6 0 0 1-6 6H786a6 6 0 0 1-6-6z" fill="#fff"/><path d="M780 974v38h420v-38M780 1048v31a6 6 0 0 0 6 6h408a6 6 0 0 0 6-6v-31" fill="#e6e6e6"/><path d="M780 903a6 6 0 0 1 6-6h408a6 6 0 0 1 6 6v176a6 6 0 0 1-6 6H786a6 6 0 0 1-6-6zM780 937h420M978.74 937v148" stroke="#3a414a" fill="none"/><use xlink:href="#i" transform="matrix(1,0,0,1,790,897) translate(150.679012345679 24.444444444444443)"/><use xlink:href="#j" transform="matrix(1,0,0,1,785,939.5) translate(0 20.444444444444443)"/><use xlink:href="#k" transform="matrix(1,0,0,1,983.7410603430174,939.5) translate(0 20.444444444444443)"/><use xlink:href="#l" transform="matrix(1,0,0,1,785,976.5) translate(0 20.444444444444443)"/><use xlink:href="#m" transform="matrix(1,0,0,1,983.7410603430174,976.5) translate(0 20.444444444444443)"/><use xlink:href="#n" transform="matrix(1,0,0,1,785,1013.5) translate(0 20.444444444444443)"/><use xlink:href="#m" transform="matrix(1,0,0,1,983.7410603430174,1013.5) translate(0 20.444444444444443)"/><use xlink:href="#o" transform="matrix(1,0,0,1,785,1050.5) translate(0 20.444444444444443)"/><use xlink:href="#p" transform="matrix(1,0,0,1,983.7410603430174,1050.5) translate(0 20.444444444444443)"/><path d="M40 246a6 6 0 0 1 6-6h748a6 6 0 0 1 6 6v316a6 6 0 0 1-6 6H46a6 6 0 0 1-6-6z" fill="#fff"/><path d="M40 376v33h760v-33M40 504v33h760v-33" fill="#e6e6e6"/><path d="M40 246a6 6 0 0 1 6-6h748a6 6 0 0 1 6 6v316a6 6 0 0 1-6 6H46a6 6 0 0 1-6-6zM40 280h760M312.37 280v288" stroke="#3a414a" fill="none"/><use xlink:href="#q" transform="matrix(1,0,0,1,50,240) translate(290.5246913580247 24.444444444444443)"/><use xlink:href="#r" transform="matrix(1,0,0,1,45,282.5) translate(0 49.1)"/><use xlink:href="#s" transform="matrix(1,0,0,1,317.37217048568624,282.5) translate(0 16.69999999999999)"/><use xlink:href="#t" transform="matrix(1,0,0,1,317.37217048568624,282.5) translate(108.85 16.69999999999999)"/><use xlink:href="#u" transform="matrix(1,0,0,1,317.37217048568624,282.5) translate(0 38.29999999999999)"/><use xlink:href="#v" transform="matrix(1,0,0,1,317.37217048568624,282.5) translate(78.9 38.29999999999999)"/><use xlink:href="#w" transform="matrix(1,0,0,1,317.37217048568624,282.5) translate(152.8 38.29999999999999)"/><use xlink:href="#x" transform="matrix(1,0,0,1,317.37217048568624,282.5) translate(168.3 38.29999999999999)"/><use xlink:href="#y" transform="matrix(1,0,0,1,317.37217048568624,282.5) translate(0 59.89999999999999)"/><use xlink:href="#z" transform="matrix(1,0,0,1,317.37217048568624,282.5) translate(185.85000000000002 59.89999999999999)"/><use xlink:href="#A" transform="matrix(1,0,0,1,317.37217048568624,282.5) translate(0 81.5)"/><use xlink:href="#B" transform="matrix(1,0,0,1,317.37217048568624,282.5) translate(5 81.5)"/><use xlink:href="#C" transform="matrix(1,0,0,1,317.37217048568624,282.5) translate(26.45 81.5)"/><use xlink:href="#D" transform="matrix(1,0,0,1,317.37217048568624,282.5) translate(85.45 81.5)"/><use xlink:href="#E" transform="matrix(1,0,0,1,45,378.5) translate(0 17.1)"/><use xlink:href="#F" transform="matrix(1,0,0,1,317.37217048568624,378.5) translate(0 17.1)"/><use xlink:href="#G" transform="matrix(1,0,0,1,317.37217048568624,378.5) translate(79.95 17.1)"/><use xlink:href="#H" transform="matrix(1,0,0,1,317.37217048568624,378.5) translate(109.85 17.1)"/><use xlink:href="#I" transform="matrix(1,0,0,1,317.37217048568624,378.5) translate(131.29999999999998 17.1)"/><use xlink:href="#J" transform="matrix(1,0,0,1,45,410.5) translate(0 49.1)"/><use xlink:href="#K" transform="matrix(1,0,0,1,317.37217048568624,410.5) translate(0 16.69999999999999)"/><use xlink:href="#L" transform="matrix(1,0,0,1,317.37217048568624,410.5) translate(108.85 16.69999999999999)"/><use xlink:href="#M" transform="matrix(1,0,0,1,317.37217048568624,410.5) translate(0 38.29999999999999)"/><use xlink:href="#N" transform="matrix(1,0,0,1,317.37217048568624,410.5) translate(116.85000000000001 38.29999999999999)"/><use xlink:href="#O" transform="matrix(1,0,0,1,317.37217048568624,410.5) translate(190.75 38.29999999999999)"/><use xlink:href="#P" transform="matrix(1,0,0,1,317.37217048568624,410.5) translate(206.25 38.29999999999999)"/><use xlink:href="#Q" transform="matrix(1,0,0,1,317.37217048568624,410.5) translate(0 59.89999999999999)"/><use xlink:href="#N" transform="matrix(1,0,0,1,317.37217048568624,410.5) translate(110.9 59.89999999999999)"/><use xlink:href="#O" transform="matrix(1,0,0,1,317.37217048568624,410.5) translate(184.8 59.89999999999999)"/><use xlink:href="#R" transform="matrix(1,0,0,1,317.37217048568624,410.5) translate(200.3 59.89999999999999)"/><use xlink:href="#S" transform="matrix(1,0,0,1,317.37217048568624,410.5) translate(0 81.5)"/><use xlink:href="#T" transform="matrix(1,0,0,1,317.37217048568624,410.5) translate(21.45 81.5)"/><use xlink:href="#U" transform="matrix(1,0,0,1,45,506.5) translate(0 17.1)"/><use xlink:href="#V" transform="matrix(1,0,0,1,317.37217048568624,506.5) translate(0 17.1)"/><use xlink:href="#W" transform="matrix(1,0,0,1,317.37217048568624,506.5) translate(64.95 17.1)"/><use xlink:href="#B" transform="matrix(1,0,0,1,317.37217048568624,506.5) translate(126.9 17.1)"/><use xlink:href="#D" transform="matrix(1,0,0,1,317.37217048568624,506.5) translate(148.35 17.1)"/><use xlink:href="#X" transform="matrix(1,0,0,1,45,538.5) translate(0 17.1)"/><use xlink:href="#V" transform="matrix(1,0,0,1,317.37217048568624,538.5) translate(0 17.1)"/><use xlink:href="#W" transform="matrix(1,0,0,1,317.37217048568624,538.5) translate(64.95 17.1)"/><use xlink:href="#B" transform="matrix(1,0,0,1,317.37217048568624,538.5) translate(126.9 17.1)"/><use xlink:href="#Y" transform="matrix(1,0,0,1,317.37217048568624,538.5) translate(148.35 17.1)"/><path d="M620 46a6 6 0 0 1 6-6h588a6 6 0 0 1 6 6v139a6 6 0 0 1-6 6H626a6 6 0 0 1-6-6z" fill="#fff"/><path d="M620 117v38h600v-38" fill="#e6e6e6"/><path d="M620 46a6 6 0 0 1 6-6h588a6 6 0 0 1 6 6v139a6 6 0 0 1-6 6H626a6 6 0 0 1-6-6zM620 80h600M903 80v111" stroke="#3a414a" fill="none"/><use xlink:href="#Z" transform="matrix(1,0,0,1,630,40) translate(238.58641975308643 24.444444444444443)"/><use xlink:href="#aa" transform="matrix(1,0,0,1,625,82.5) translate(0 20.444444444444443)"/><use xlink:href="#q" transform="matrix(1,0,0,1,907.9999999999993,82.5) translate(0 20.444444444444443)"/><use xlink:href="#ab" transform="matrix(1,0,0,1,625,119.5) translate(0 20.444444444444443)"/><use xlink:href="#ac" transform="matrix(1,0,0,1,907.9999999999993,119.5) translate(0 20.444444444444443)"/><use xlink:href="#ad" transform="matrix(1,0,0,1,625,156.5) translate(0 20.444444444444443)"/><use xlink:href="#ae" transform="matrix(1,0,0,1,907.9999999999993,156.5) translate(0 20.444444444444443)"/><path d="M780 623a6 6 0 0 1 6-6h728a6 6 0 0 1 6 6v219a6 6 0 0 1-6 6H786a6 6 0 0 1-6-6z" fill="#fff"/><path d="M780 774v38h740v-38" fill="#e6e6e6"/><path d="M780 623a6 6 0 0 1 6-6h728a6 6 0 0 1 6 6v219a6 6 0 0 1-6 6H786a6 6 0 0 1-6-6zM780 657h740M988 657v191" stroke="#3a414a" fill="none"/><use xlink:href="#ac" transform="matrix(1,0,0,1,790,617) translate(262.6851851851852 24.444444444444443)"/><use xlink:href="#af" transform="matrix(1,0,0,1,785,659.5) translate(0 60.44444444444444)"/><use xlink:href="#ag" transform="matrix(1,0,0,1,992.9999999999995,659.5) translate(0 20.44444444444445)"/><use xlink:href="#ah" transform="matrix(1,0,0,1,992.9999999999995,659.5) translate(81.35802469135801 20.44444444444445)"/><use xlink:href="#ai" transform="matrix(1,0,0,1,992.9999999999995,659.5) translate(0 47.111111111111114)"/><use xlink:href="#ah" transform="matrix(1,0,0,1,992.9999999999995,659.5) translate(72.71604938271604 47.111111111111114)"/><use xlink:href="#aj" transform="matrix(1,0,0,1,992.9999999999995,659.5) translate(0 73.77777777777779)"/><use xlink:href="#ak" transform="matrix(1,0,0,1,992.9999999999995,659.5) translate(72.71604938271604 73.77777777777779)"/><use xlink:href="#al" transform="matrix(1,0,0,1,992.9999999999995,659.5) translate(120.80246913580245 73.77777777777779)"/><use xlink:href="#am" transform="matrix(1,0,0,1,992.9999999999995,659.5) translate(139.93827160493825 73.77777777777779)"/><use xlink:href="#an" transform="matrix(1,0,0,1,992.9999999999995,659.5) translate(0 100.44444444444446)"/><use xlink:href="#ao" transform="matrix(1,0,0,1,992.9999999999995,659.5) translate(26.481481481481477 100.44444444444446)"/><g><use xlink:href="#ap" transform="matrix(1,0,0,1,785,776.5) translate(0 20.444444444444443)"/></g><g><use xlink:href="#aq" transform="matrix(1,0,0,1,992.9999999999995,776.5) translate(0 20.444444444444443)"/><use xlink:href="#ar" transform="matrix(1,0,0,1,992.9999999999995,776.5) translate(134.38271604938274 20.444444444444443)"/><use xlink:href="#as" transform="matrix(1,0,0,1,992.9999999999995,776.5) translate(171.2962962962963 20.444444444444443)"/><use xlink:href="#ao" transform="matrix(1,0,0,1,992.9999999999995,776.5) translate(197.77777777777777 20.444444444444443)"/></g><g><use xlink:href="#at" transform="matrix(1,0,0,1,785,813.5) translate(0 20.444444444444443)"/></g><g><use xlink:href="#au" transform="matrix(1,0,0,1,992.9999999999995,813.5) translate(0 20.444444444444443)"/><use xlink:href="#av" transform="matrix(1,0,0,1,992.9999999999995,813.5) translate(115.8641975308642 20.444444444444443)"/><use xlink:href="#as" transform="matrix(1,0,0,1,992.9999999999995,813.5) translate(228.0246913580247 20.444444444444443)"/><use xlink:href="#ao" transform="matrix(1,0,0,1,992.9999999999995,813.5) translate(254.50617283950618 20.444444444444443)"/></g><path d="M1260 237a6 6 0 0 1 6-6h368a6 6 0 0 1 6 6v325a6 6 0 0 1-6 6h-368a6 6 0 0 1-6-6z" fill="#fff"/><path d="M1260 388v91h380v-91" fill="#e6e6e6"/><path d="M1260 237a6 6 0 0 1 6-6h368a6 6 0 0 1 6 6v325a6 6 0 0 1-6 6h-368a6 6 0 0 1-6-6zM1260 271h380M1410 271v297" stroke="#3a414a" fill="none"/><g><use xlink:href="#ae" transform="matrix(1,0,0,1,1270,231) translate(107.8395061728395 24.444444444444443)"/></g><g><use xlink:href="#aw" transform="matrix(1,0,0,1,1265,273.5) translate(0 60.44444444444444)"/></g><g><use xlink:href="#ax" transform="matrix(1,0,0,1,1414.999999999999,273.5) translate(0 20.44444444444445)"/><use xlink:href="#ay" transform="matrix(1,0,0,1,1414.999999999999,273.5) translate(118.33333333333331 20.44444444444445)"/><use xlink:href="#az" transform="matrix(1,0,0,1,1414.999999999999,273.5) translate(0 47.111111111111114)"/><use xlink:href="#ay" transform="matrix(1,0,0,1,1414.999999999999,273.5) translate(107.28395061728395 47.111111111111114)"/><use xlink:href="#aA" transform="matrix(1,0,0,1,1414.999999999999,273.5) translate(0 73.77777777777779)"/><use xlink:href="#aB" transform="matrix(1,0,0,1,1414.999999999999,273.5) translate(127.03703703703704 73.77777777777779)"/><use xlink:href="#aC" transform="matrix(1,0,0,1,1414.999999999999,273.5) translate(0 100.44444444444446)"/><use xlink:href="#aD" transform="matrix(1,0,0,1,1414.999999999999,273.5) translate(26.481481481481477 100.44444444444446)"/></g><g><use xlink:href="#aE" transform="matrix(1,0,0,1,1265,390.5) translate(0 46.94444444444444)"/></g><g><use xlink:href="#aF" transform="matrix(1,0,0,1,1414.999999999999,390.5) translate(0 20.27777777777778)"/><use xlink:href="#aG" transform="matrix(1,0,0,1,1414.999999999999,390.5) translate(134.38271604938274 20.27777777777778)"/><use xlink:href="#az" transform="matrix(1,0,0,1,1414.999999999999,390.5) translate(0 46.94444444444444)"/><use xlink:href="#aH" transform="matrix(1,0,0,1,1414.999999999999,390.5) translate(107.28395061728395 46.94444444444444)"/><use xlink:href="#aC" transform="matrix(1,0,0,1,1414.999999999999,390.5) translate(0 73.61111111111111)"/><use xlink:href="#aD" transform="matrix(1,0,0,1,1414.999999999999,390.5) translate(26.481481481481477 73.61111111111111)"/></g><g><use xlink:href="#aI" transform="matrix(1,0,0,1,1265,480.5) translate(0 46.94444444444444)"/></g><g><use xlink:href="#aJ" transform="matrix(1,0,0,1,1414.999999999999,480.5) translate(0 20.27777777777778)"/><use xlink:href="#aK" transform="matrix(1,0,0,1,1414.999999999999,480.5) translate(118.33333333333331 20.27777777777778)"/><use xlink:href="#aL" transform="matrix(1,0,0,1,1414.999999999999,480.5) translate(0 46.94444444444444)"/><use xlink:href="#aM" transform="matrix(1,0,0,1,1414.999999999999,480.5) translate(107.28395061728395 46.94444444444444)"/><use xlink:href="#aN" transform="matrix(1,0,0,1,1414.999999999999,480.5) translate(0 73.61111111111111)"/><use xlink:href="#aO" transform="matrix(1,0,0,1,1414.999999999999,480.5) translate(26.481481481481477 73.61111111111111)"/><use xlink:href="#aP" transform="matrix(1,0,0,1,1414.999999999999,480.5) translate(153.5185185185185 73.61111111111111)"/></g><path d="M380 615.63V598.5a6 6 0 0 1 6-6h36.07a6 6 0 0 0 6-6v-17.54" stroke="#3a414a" fill="none"/><path d="M369.82 598.34l10.18 17.2 10.18-17.2" stroke="#3a414a" fill="none"/><path d="M428.57 568.98h-1v-.52h1z" stroke="#3a414a" stroke-width=".05" fill="#3a414a"/><path d="M920 191.96v17.54a6 6 0 0 1-6 6H426a6 6 0 0 0-6 6v17.13" stroke="#3a414a" fill="none"/><path d="M920.5 191.98h-1v-.52h1z" stroke="#3a414a" stroke-width=".05" fill="#3a414a"/><path d="M409.82 221.34l10.18 17.2 10.18-17.2M920 191.96V398a6 6 0 0 0 6 6h218a6 6 0 0 1 6 6v205.63" stroke="#3a414a" fill="none"/><path d="M920.5 191.98h-1v-.52h1z" stroke="#3a414a" stroke-width=".05" fill="#3a414a"/><path d="M1139.82 598.34l10.18 17.2 10.18-17.2M1150 848.96v17.54a6 6 0 0 1-6 6H996a6 6 0 0 0-6 6v17.13" stroke="#3a414a" fill="none"/><path d="M1150.5 848.98h-1v-.52h1z" stroke="#3a414a" stroke-width=".05" fill="#3a414a"/><path d="M979.82 878.34l10.18 17.2 10.18-17.2M1220.97 135.53H1444a6 6 0 0 1 6 6v88.1" stroke="#3a414a" fill="none"/><path d="M1221 136.03h-.53v-1h.52z" stroke="#3a414a" stroke-width=".05" fill="#3a414a"/><path d="M1439.82 212.34l10.18 17.2 10.18-17.2" stroke="#3a414a" fill="none"/><defs><path fill="#3a414a" d="M30-248c87 1 191-15 191 75 0 78-77 80-158 76V0H30v-248zm33 125c57 0 124 11 124-50 0-59-68-47-124-48v98" id="aQ"/><path fill="#3a414a" d="M84 4C-5 8 30-112 23-190h32v120c0 31 7 50 39 49 72-2 45-101 50-169h31l1 190h-30c-1-10 1-25-2-33-11 22-28 36-60 37" id="aR"/><path fill="#3a414a" d="M117-194c89-4 53 116 60 194h-32v-121c0-31-8-49-39-48C34-167 62-67 57 0H25l-1-190h30c1 10-1 24 2 32 11-22 29-35 61-36" id="aS"/><path fill="#3a414a" d="M96-169c-40 0-48 33-48 73s9 75 48 75c24 0 41-14 43-38l32 2c-6 37-31 61-74 61-59 0-76-41-82-99-10-93 101-131 147-64 4 7 5 14 7 22l-32 3c-4-21-16-35-41-35" id="aT"/><path fill="#3a414a" d="M106-169C34-169 62-67 57 0H25v-261h32l-1 103c12-21 28-36 61-36 89 0 53 116 60 194h-32v-121c2-32-8-49-39-48" id="aU"/><g id="a"><use transform="matrix(0.06172839506172839,0,0,0.06172839506172839,0,0)" xlink:href="#aQ"/><use transform="matrix(0.06172839506172839,0,0,0.06172839506172839,14.814814814814813,0)" xlink:href="#aR"/><use transform="matrix(0.06172839506172839,0,0,0.06172839506172839,27.160493827160494,0)" xlink:href="#aS"/><use transform="matrix(0.06172839506172839,0,0,0.06172839506172839,39.50617283950617,0)" xlink:href="#aT"/><use transform="matrix(0.06172839506172839,0,0,0.06172839506172839,50.61728395061728,0)" xlink:href="#aU"/></g><path d="M24-231v-30h32v30H24zM24 0v-190h32V0H24" id="aV"/><path d="M85-194c31 0 48 13 60 33l-1-100h32l1 261h-30c-2-10 0-23-3-31C134-8 116 4 85 4 32 4 16-35 15-94c0-66 23-100 70-100zm9 24c-40 0-46 34-46 75 0 40 6 74 45 74 42 0 51-32 51-76 0-42-9-74-50-73" id="aW"/><g id="b"><use transform="matrix(0.05,0,0,0.05,0,0)" xlink:href="#aV"/><use transform="matrix(0.05,0,0,0.05,3.95,0)" xlink:href="#aW"/></g><path d="M117-194c89-4 53 116 60 194h-32v-121c0-31-8-49-39-48C34-167 62-67 57 0H25l-1-190h30c1 10-1 24 2 32 11-22 29-35 61-36" id="aX"/><path d="M59-47c-2 24 18 29 38 22v24C64 9 27 4 27-40v-127H5v-23h24l9-43h21v43h35v23H59v120" id="aY"/><g id="c"><use transform="matrix(0.05,0,0,0.05,0,0)" xlink:href="#aV"/><use transform="matrix(0.05,0,0,0.05,3.95,0)" xlink:href="#aX"/><use transform="matrix(0.05,0,0,0.05,13.949999999999998,0)" xlink:href="#aY"/></g><path d="M100-194c63 0 86 42 84 106H49c0 40 14 67 53 68 26 1 43-12 49-29l28 8c-11 28-37 45-77 45C44 4 14-33 15-96c1-61 26-98 85-98zm52 81c6-60-76-77-97-28-3 7-6 17-6 28h103" id="aZ"/><path d="M210-169c-67 3-38 105-44 169h-31v-121c0-29-5-50-35-48C34-165 62-65 56 0H25l-1-190h30c1 10-1 24 2 32 10-44 99-50 107 0 11-21 27-35 58-36 85-2 47 119 55 194h-31v-121c0-29-5-49-35-48" id="ba"/><path d="M115-194c55 1 70 41 70 98S169 2 115 4C84 4 66-9 55-30l1 105H24l-1-265h31l2 30c10-21 28-34 59-34zm-8 174c40 0 45-34 45-75s-6-73-45-74c-42 0-51 32-51 76 0 43 10 73 51 73" id="bb"/><path d="M24 0v-261h32V0H24" id="bc"/><path d="M100-194c62-1 85 37 85 99 1 63-27 99-86 99S16-35 15-95c0-66 28-99 85-99zM99-20c44 1 53-31 53-75 0-43-8-75-51-75s-53 32-53 75 10 74 51 75" id="bd"/><path d="M179-190L93 31C79 59 56 82 12 73V49c39 6 53-20 64-50L1-190h34L92-34l54-156h33" id="be"/><path d="M33 0v-248h34V0H33" id="bf"/><g id="d"><use transform="matrix(0.05,0,0,0.05,0,0)" xlink:href="#aZ"/><use transform="matrix(0.05,0,0,0.05,10,0)" xlink:href="#ba"/><use transform="matrix(0.05,0,0,0.05,24.950000000000003,0)" xlink:href="#bb"/><use transform="matrix(0.05,0,0,0.05,34.95,0)" xlink:href="#bc"/><use transform="matrix(0.05,0,0,0.05,38.900000000000006,0)" xlink:href="#bd"/><use transform="matrix(0.05,0,0,0.05,48.900000000000006,0)" xlink:href="#be"/><use transform="matrix(0.05,0,0,0.05,57.900000000000006,0)" xlink:href="#aZ"/><use transform="matrix(0.05,0,0,0.05,67.9,0)" xlink:href="#aZ"/><use transform="matrix(0.05,0,0,0.05,77.9,0)" xlink:href="#bf"/><use transform="matrix(0.05,0,0,0.05,82.9,0)" xlink:href="#aW"/></g><g id="e"><use transform="matrix(0.05,0,0,0.05,0,0)" xlink:href="#aV"/><use transform="matrix(0.05,0,0,0.05,3.95,0)" xlink:href="#aX"/><use transform="matrix(0.05,0,0,0.05,13.949999999999998,0)" xlink:href="#aY"/></g><path d="M141-36C126-15 110 5 73 4 37 3 15-17 15-53c-1-64 63-63 125-63 3-35-9-54-41-54-24 1-41 7-42 31l-33-3c5-37 33-52 76-52 45 0 72 20 72 64v82c-1 20 7 32 28 27v20c-31 9-61-2-59-35zM48-53c0 20 12 33 32 33 41-3 63-29 60-74-43 2-92-5-92 41" id="bg"/><g id="f"><use transform="matrix(0.05,0,0,0.05,0,0)" xlink:href="#aW"/><use transform="matrix(0.05,0,0,0.05,10,0)" xlink:href="#bg"/><use transform="matrix(0.05,0,0,0.05,20,0)" xlink:href="#aY"/><use transform="matrix(0.05,0,0,0.05,25,0)" xlink:href="#aZ"/><use transform="matrix(0.05,0,0,0.05,35,0)" xlink:href="#aY"/><use transform="matrix(0.05,0,0,0.05,40,0)" xlink:href="#aV"/><use transform="matrix(0.05,0,0,0.05,43.95,0)" xlink:href="#ba"/><use transform="matrix(0.05,0,0,0.05,58.900000000000006,0)" xlink:href="#aZ"/></g><path d="M96-169c-40 0-48 33-48 73s9 75 48 75c24 0 41-14 43-38l32 2c-6 37-31 61-74 61-59 0-76-41-82-99-10-93 101-131 147-64 4 7 5 14 7 22l-32 3c-4-21-16-35-41-35" id="bh"/><path d="M114-163C36-179 61-72 57 0H25l-1-190h30c1 12-1 29 2 39 6-27 23-49 58-41v29" id="bi"/><path d="M160-131c35 5 61 23 61 61C221 17 115-2 30 0v-248c76 3 177-17 177 60 0 33-19 50-47 57zm-97-11c50-1 110 9 110-42 0-47-63-36-110-37v79zm0 115c55-2 124 14 124-45 0-56-70-42-124-44v89" id="bj"/><path d="M30 0v-248h187v28H63v79h144v27H63v87h162V0H30" id="bk"/><g id="g"><use transform="matrix(0.05,0,0,0.05,0,0)" xlink:href="#bh"/><use transform="matrix(0.05,0,0,0.05,9,0)" xlink:href="#bi"/><use transform="matrix(0.05,0,0,0.05,14.949999999999998,0)" xlink:href="#aZ"/><use transform="matrix(0.05,0,0,0.05,24.95,0)" xlink:href="#bg"/><use transform="matrix(0.05,0,0,0.05,34.95,0)" xlink:href="#aY"/><use transform="matrix(0.05,0,0,0.05,39.95,0)" xlink:href="#aZ"/><use transform="matrix(0.05,0,0,0.05,49.95,0)" xlink:href="#aW"/><use transform="matrix(0.05,0,0,0.05,59.95,0)" xlink:href="#bj"/><use transform="matrix(0.05,0,0,0.05,71.95,0)" xlink:href="#be"/><use transform="matrix(0.05,0,0,0.05,80.95,0)" xlink:href="#bk"/><use transform="matrix(0.05,0,0,0.05,92.95,0)" xlink:href="#ba"/><use transform="matrix(0.05,0,0,0.05,107.9,0)" xlink:href="#bb"/><use transform="matrix(0.05,0,0,0.05,117.9,0)" xlink:href="#bc"/><use transform="matrix(0.05,0,0,0.05,121.85000000000001,0)" xlink:href="#bd"/><use transform="matrix(0.05,0,0,0.05,131.85000000000002,0)" xlink:href="#be"/><use transform="matrix(0.05,0,0,0.05,140.85000000000002,0)" xlink:href="#aZ"/><use transform="matrix(0.05,0,0,0.05,150.85000000000002,0)" xlink:href="#aZ"/><use transform="matrix(0.05,0,0,0.05,160.85000000000002,0)" xlink:href="#bf"/><use transform="matrix(0.05,0,0,0.05,165.85000000000002,0)" xlink:href="#aW"/></g><path d="M101-234c-31-9-42 10-38 44h38v23H63V0H32v-167H5v-23h27c-7-52 17-82 69-68v24" id="bl"/><g id="h"><use transform="matrix(0.05,0,0,0.05,0,0)" xlink:href="#ba"/><use transform="matrix(0.05,0,0,0.05,14.950000000000001,0)" xlink:href="#bd"/><use transform="matrix(0.05,0,0,0.05,24.950000000000003,0)" xlink:href="#aW"/><use transform="matrix(0.05,0,0,0.05,34.95,0)" xlink:href="#aV"/><use transform="matrix(0.05,0,0,0.05,38.900000000000006,0)" xlink:href="#bl"/><use transform="matrix(0.05,0,0,0.05,43.900000000000006,0)" xlink:href="#aV"/><use transform="matrix(0.05,0,0,0.05,47.85000000000001,0)" xlink:href="#aZ"/><use transform="matrix(0.05,0,0,0.05,57.85,0)" xlink:href="#aW"/><use transform="matrix(0.05,0,0,0.05,67.85000000000001,0)" xlink:href="#bj"/><use transform="matrix(0.05,0,0,0.05,79.85000000000001,0)" xlink:href="#be"/><use transform="matrix(0.05,0,0,0.05,88.85000000000001,0)" xlink:href="#bk"/><use transform="matrix(0.05,0,0,0.05,100.85000000000001,0)" xlink:href="#ba"/><use transform="matrix(0.05,0,0,0.05,115.80000000000001,0)" xlink:href="#bb"/><use transform="matrix(0.05,0,0,0.05,125.80000000000001,0)" xlink:href="#bc"/><use transform="matrix(0.05,0,0,0.05,129.75,0)" xlink:href="#bd"/><use transform="matrix(0.05,0,0,0.05,139.75,0)" xlink:href="#be"/><use transform="matrix(0.05,0,0,0.05,148.75,0)" xlink:href="#aZ"/><use transform="matrix(0.05,0,0,0.05,158.75,0)" xlink:href="#aZ"/><use transform="matrix(0.05,0,0,0.05,168.75,0)" xlink:href="#bf"/><use transform="matrix(0.05,0,0,0.05,173.75,0)" xlink:href="#aW"/></g><path fill="#3a414a" d="M30 0v-248h187v28H63v79h144v27H63v87h162V0H30" id="bm"/><path fill="#3a414a" d="M210-169c-67 3-38 105-44 169h-31v-121c0-29-5-50-35-48C34-165 62-65 56 0H25l-1-190h30c1 10-1 24 2 32 10-44 99-50 107 0 11-21 27-35 58-36 85-2 47 119 55 194h-31v-121c0-29-5-49-35-48" id="bn"/><path fill="#3a414a" d="M115-194c55 1 70 41 70 98S169 2 115 4C84 4 66-9 55-30l1 105H24l-1-265h31l2 30c10-21 28-34 59-34zm-8 174c40 0 45-34 45-75s-6-73-45-74c-42 0-51 32-51 76 0 43 10 73 51 73" id="bo"/><path fill="#3a414a" d="M24 0v-261h32V0H24" id="bp"/><path fill="#3a414a" d="M100-194c62-1 85 37 85 99 1 63-27 99-86 99S16-35 15-95c0-66 28-99 85-99zM99-20c44 1 53-31 53-75 0-43-8-75-51-75s-53 32-53 75 10 74 51 75" id="bq"/><path fill="#3a414a" d="M179-190L93 31C79 59 56 82 12 73V49c39 6 53-20 64-50L1-190h34L92-34l54-156h33" id="br"/><path fill="#3a414a" d="M100-194c63 0 86 42 84 106H49c0 40 14 67 53 68 26 1 43-12 49-29l28 8c-11 28-37 45-77 45C44 4 14-33 15-96c1-61 26-98 85-98zm52 81c6-60-76-77-97-28-3 7-6 17-6 28h103" id="bs"/><g id="i"><use transform="matrix(0.06172839506172839,0,0,0.06172839506172839,0,0)" xlink:href="#bm"/><use transform="matrix(0.06172839506172839,0,0,0.06172839506172839,14.814814814814813,0)" xlink:href="#bn"/><use transform="matrix(0.06172839506172839,0,0,0.06172839506172839,33.2716049382716,0)" xlink:href="#bo"/><use transform="matrix(0.06172839506172839,0,0,0.06172839506172839,45.61728395061728,0)" xlink:href="#bp"/><use transform="matrix(0.06172839506172839,0,0,0.06172839506172839,50.49382716049382,0)" xlink:href="#bq"/><use transform="matrix(0.06172839506172839,0,0,0.06172839506172839,62.8395061728395,0)" xlink:href="#br"/><use transform="matrix(0.06172839506172839,0,0,0.06172839506172839,73.9506172839506,0)" xlink:href="#bs"/><use transform="matrix(0.06172839506172839,0,0,0.06172839506172839,86.29629629629629,0)" xlink:href="#bs"/></g><path fill="#3a414a" d="M24-231v-30h32v30H24zM24 0v-190h32V0H24" id="bt"/><path fill="#3a414a" d="M85-194c31 0 48 13 60 33l-1-100h32l1 261h-30c-2-10 0-23-3-31C134-8 116 4 85 4 32 4 16-35 15-94c0-66 23-100 70-100zm9 24c-40 0-46 34-46 75 0 40 6 74 45 74 42 0 51-32 51-76 0-42-9-74-50-73" id="bu"/><g id="j"><use transform="matrix(0.06172839506172839,0,0,0.06172839506172839,0,0)" xlink:href="#bt"/><use transform="matrix(0.06172839506172839,0,0,0.06172839506172839,4.876543209876543,0)" xlink:href="#bu"/></g><path fill="#3a414a" d="M59-47c-2 24 18 29 38 22v24C64 9 27 4 27-40v-127H5v-23h24l9-43h21v43h35v23H59v120" id="bv"/><g id="k"><use transform="matrix(0.06172839506172839,0,0,0.06172839506172839,0,0)" xlink:href="#bt"/><use transform="matrix(0.06172839506172839,0,0,0.06172839506172839,4.876543209876543,0)" xlink:href="#aS"/><use transform="matrix(0.06172839506172839,0,0,0.06172839506172839,17.22222222222222,0)" xlink:href="#bv"/></g><path fill="#3a414a" d="M101-234c-31-9-42 10-38 44h38v23H63V0H32v-167H5v-23h27c-7-52 17-82 69-68v24" id="bw"/><path fill="#3a414a" d="M141-36C126-15 110 5 73 4 37 3 15-17 15-53c-1-64 63-63 125-63 3-35-9-54-41-54-24 1-41 7-42 31l-33-3c5-37 33-52 76-52 45 0 72 20 72 64v82c-1 20 7 32 28 27v20c-31 9-61-2-59-35zM48-53c0 20 12 33 32 33 41-3 63-29 60-74-43 2-92-5-92 41" id="bx"/><g id="l"><use transform="matrix(0.06172839506172839,0,0,0.06172839506172839,0,0)" xlink:href="#bw"/><use transform="matrix(0.06172839506172839,0,0,0.06172839506172839,6.172839506172839,0)" xlink:href="#aS"/><use transform="matrix(0.06172839506172839,0,0,0.06172839506172839,18.51851851851852,0)" xlink:href="#bx"/><use transform="matrix(0.06172839506172839,0,0,0.06172839506172839,30.864197530864196,0)" xlink:href="#bn"/><use transform="matrix(0.06172839506172839,0,0,0.06172839506172839,49.32098765432099,0)" xlink:href="#bs"/></g><path fill="#3a414a" d="M135-143c-3-34-86-38-87 0 15 53 115 12 119 90S17 21 10-45l28-5c4 36 97 45 98 0-10-56-113-15-118-90-4-57 82-63 122-42 12 7 21 19 24 35" id="by"/><path fill="#3a414a" d="M114-163C36-179 61-72 57 0H25l-1-190h30c1 12-1 29 2 39 6-27 23-49 58-41v29" id="bz"/><path fill="#3a414a" d="M177-190C167-65 218 103 67 71c-23-6-38-20-44-43l32-5c15 47 100 32 89-28v-30C133-14 115 1 83 1 29 1 15-40 15-95c0-56 16-97 71-98 29-1 48 16 59 35 1-10 0-23 2-32h30zM94-22c36 0 50-32 50-73 0-42-14-75-50-75-39 0-46 34-46 75s6 73 46 73" id="bA"/><g id="m"><use transform="matrix(0.06172839506172839,0,0,0.06172839506172839,0,0)" xlink:href="#by"/><use transform="matrix(0.06172839506172839,0,0,0.06172839506172839,11.11111111111111,0)" xlink:href="#bv"/><use transform="matrix(0.06172839506172839,0,0,0.06172839506172839,17.28395061728395,0)" xlink:href="#bz"/><use transform="matrix(0.06172839506172839,0,0,0.06172839506172839,24.629629629629626,0)" xlink:href="#bt"/><use transform="matrix(0.06172839506172839,0,0,0.06172839506172839,29.50617283950617,0)" xlink:href="#aS"/><use transform="matrix(0.06172839506172839,0,0,0.06172839506172839,41.85185185185185,0)" xlink:href="#bA"/></g><g id="n"><use transform="matrix(0.06172839506172839,0,0,0.06172839506172839,0,0)" xlink:href="#bp"/><use transform="matrix(0.06172839506172839,0,0,0.06172839506172839,4.876543209876543,0)" xlink:href="#aS"/><use transform="matrix(0.06172839506172839,0,0,0.06172839506172839,17.22222222222222,0)" xlink:href="#bx"/><use transform="matrix(0.06172839506172839,0,0,0.06172839506172839,29.5679012345679,0)" xlink:href="#bn"/><use transform="matrix(0.06172839506172839,0,0,0.06172839506172839,48.02469135802468,0)" xlink:href="#bs"/></g><g id="o"><use transform="matrix(0.06172839506172839,0,0,0.06172839506172839,0,0)" xlink:href="#bx"/><use transform="matrix(0.06172839506172839,0,0,0.06172839506172839,12.345679012345679,0)" xlink:href="#bu"/><use transform="matrix(0.06172839506172839,0,0,0.06172839506172839,24.691358024691358,0)" xlink:href="#bn"/><use transform="matrix(0.06172839506172839,0,0,0.06172839506172839,43.148148148148145,0)" xlink:href="#bt"/><use transform="matrix(0.06172839506172839,0,0,0.06172839506172839,48.02469135802469,0)" xlink:href="#aS"/></g><path fill="#3a414a" d="M115-194c53 0 69 39 70 98 0 66-23 100-70 100C84 3 66-7 56-30L54 0H23l1-261h32v101c10-23 28-34 59-34zm-8 174c40 0 45-34 45-75 0-40-5-75-45-74-42 0-51 32-51 76 0 43 10 73 51 73" id="bB"/><g id="p"><use transform="matrix(0.06172839506172839,0,0,0.06172839506172839,0,0)" xlink:href="#bB"/><use transform="matrix(0.06172839506172839,0,0,0.06172839506172839,12.345679012345679,0)" xlink:href="#bq"/><use transform="matrix(0.06172839506172839,0,0,0.06172839506172839,24.691358024691358,0)" xlink:href="#bq"/><use transform="matrix(0.06172839506172839,0,0,0.06172839506172839,37.03703703703704,0)" xlink:href="#bp"/></g><path fill="#3a414a" d="M212-179c-10-28-35-45-73-45-59 0-87 40-87 99 0 60 29 101 89 101 43 0 62-24 78-52l27 14C228-24 195 4 139 4 59 4 22-46 18-125c-6-104 99-153 187-111 19 9 31 26 39 46" id="bC"/><g id="q"><use transform="matrix(0.06172839506172839,0,0,0.06172839506172839,0,0)" xlink:href="#aQ"/><use transform="matrix(0.06172839506172839,0,0,0.06172839506172839,14.814814814814813,0)" xlink:href="#aR"/><use transform="matrix(0.06172839506172839,0,0,0.06172839506172839,27.160493827160494,0)" xlink:href="#aS"/><use transform="matrix(0.06172839506172839,0,0,0.06172839506172839,39.50617283950617,0)" xlink:href="#aT"/><use transform="matrix(0.06172839506172839,0,0,0.06172839506172839,50.61728395061728,0)" xlink:href="#aU"/><use transform="matrix(0.06172839506172839,0,0,0.06172839506172839,62.962962962962955,0)" xlink:href="#bC"/><use transform="matrix(0.06172839506172839,0,0,0.06172839506172839,78.9506172839506,0)" xlink:href="#bq"/><use transform="matrix(0.06172839506172839,0,0,0.06172839506172839,91.29629629629629,0)" xlink:href="#aS"/><use transform="matrix(0.06172839506172839,0,0,0.06172839506172839,103.64197530864197,0)" xlink:href="#bv"/><use transform="matrix(0.06172839506172839,0,0,0.06172839506172839,109.81481481481481,0)" xlink:href="#bz"/><use transform="matrix(0.06172839506172839,0,0,0.06172839506172839,117.1604938271605,0)" xlink:href="#bq"/><use transform="matrix(0.06172839506172839,0,0,0.06172839506172839,129.50617283950618,0)" xlink:href="#bp"/><use transform="matrix(0.06172839506172839,0,0,0.06172839506172839,134.3827160493827,0)" xlink:href="#bp"/><use transform="matrix(0.06172839506172839,0,0,0.06172839506172839,139.25925925925924,0)" xlink:href="#bs"/><use transform="matrix(0.06172839506172839,0,0,0.06172839506172839,151.6049382716049,0)" xlink:href="#bz"/></g><path d="M30-248c87 1 191-15 191 75 0 78-77 80-158 76V0H30v-248zm33 125c57 0 124 11 124-50 0-59-68-47-124-48v98" id="bD"/><path d="M84 4C-5 8 30-112 23-190h32v120c0 31 7 50 39 49 72-2 45-101 50-169h31l1 190h-30c-1-10 1-25-2-33-11 22-28 36-60 37" id="bE"/><path d="M106-169C34-169 62-67 57 0H25v-261h32l-1 103c12-21 28-36 61-36 89 0 53 116 60 194h-32v-121c2-32-8-49-39-48" id="bF"/><g id="r"><use transform="matrix(0.05,0,0,0.05,0,0)" xlink:href="#bh"/><use transform="matrix(0.05,0,0,0.05,9,0)" xlink:href="#bi"/><use transform="matrix(0.05,0,0,0.05,14.949999999999998,0)" xlink:href="#aZ"/><use transform="matrix(0.05,0,0,0.05,24.95,0)" xlink:href="#bg"/><use transform="matrix(0.05,0,0,0.05,34.95,0)" xlink:href="#aY"/><use transform="matrix(0.05,0,0,0.05,39.95,0)" xlink:href="#aZ"/><use transform="matrix(0.05,0,0,0.05,49.95,0)" xlink:href="#bD"/><use transform="matrix(0.05,0,0,0.05,61.95,0)" xlink:href="#bE"/><use transform="matrix(0.05,0,0,0.05,71.95,0)" xlink:href="#aX"/><use transform="matrix(0.05,0,0,0.05,81.95,0)" xlink:href="#bh"/><use transform="matrix(0.05,0,0,0.05,90.95,0)" xlink:href="#bF"/></g><path d="M87 75C49 33 22-17 22-94c0-76 28-126 65-167h31c-38 41-64 92-64 168S80 34 118 75H87" id="bG"/><path d="M33-154v-36h34v36H33zM33 0v-36h34V0H33" id="bH"/><g id="s"><use transform="matrix(0.05,0,0,0.05,0,0)" xlink:href="#bG"/><use transform="matrix(0.05,0,0,0.05,5.95,0)" xlink:href="#aZ"/><use transform="matrix(0.05,0,0,0.05,15.949999999999998,0)" xlink:href="#ba"/><use transform="matrix(0.05,0,0,0.05,30.899999999999995,0)" xlink:href="#bb"/><use transform="matrix(0.05,0,0,0.05,40.9,0)" xlink:href="#bc"/><use transform="matrix(0.05,0,0,0.05,44.85,0)" xlink:href="#bd"/><use transform="matrix(0.05,0,0,0.05,54.85,0)" xlink:href="#be"/><use transform="matrix(0.05,0,0,0.05,63.85,0)" xlink:href="#aZ"/><use transform="matrix(0.05,0,0,0.05,73.85,0)" xlink:href="#aZ"/><use transform="matrix(0.05,0,0,0.05,83.85,0)" xlink:href="#bf"/><use transform="matrix(0.05,0,0,0.05,88.85,0)" xlink:href="#aW"/><use transform="matrix(0.05,0,0,0.05,98.85,0)" xlink:href="#bH"/></g><path d="M68-38c1 34 0 65-14 84H32c9-13 17-26 17-46H33v-38h35" id="bI"/><g id="t"><use transform="matrix(0.05,0,0,0.05,0,0)" xlink:href="#aV"/><use transform="matrix(0.05,0,0,0.05,3.95,0)" xlink:href="#aX"/><use transform="matrix(0.05,0,0,0.05,13.949999999999998,0)" xlink:href="#aY"/><use transform="matrix(0.05,0,0,0.05,18.95,0)" xlink:href="#bI"/></g><g id="u"><use transform="matrix(0.05,0,0,0.05,0,0)" xlink:href="#aW"/><use transform="matrix(0.05,0,0,0.05,10,0)" xlink:href="#bg"/><use transform="matrix(0.05,0,0,0.05,20,0)" xlink:href="#aY"/><use transform="matrix(0.05,0,0,0.05,25,0)" xlink:href="#aZ"/><use transform="matrix(0.05,0,0,0.05,35,0)" xlink:href="#aY"/><use transform="matrix(0.05,0,0,0.05,40,0)" xlink:href="#aV"/><use transform="matrix(0.05,0,0,0.05,43.95,0)" xlink:href="#ba"/><use transform="matrix(0.05,0,0,0.05,58.900000000000006,0)" xlink:href="#aZ"/><use transform="matrix(0.05,0,0,0.05,68.9,0)" xlink:href="#bH"/></g><g id="v"><use transform="matrix(0.05,0,0,0.05,0,0)" xlink:href="#aW"/><use transform="matrix(0.05,0,0,0.05,10,0)" xlink:href="#bg"/><use transform="matrix(0.05,0,0,0.05,20,0)" xlink:href="#aY"/><use transform="matrix(0.05,0,0,0.05,25,0)" xlink:href="#aZ"/><use transform="matrix(0.05,0,0,0.05,35,0)" xlink:href="#aY"/><use transform="matrix(0.05,0,0,0.05,40,0)" xlink:href="#aV"/><use transform="matrix(0.05,0,0,0.05,43.95,0)" xlink:href="#ba"/><use transform="matrix(0.05,0,0,0.05,58.900000000000006,0)" xlink:href="#aZ"/></g><path d="M18-150v-26h174v26H18zm0 90v-26h174v26H18" id="bJ"/><use transform="matrix(0.05,0,0,0.05,0,0)" xlink:href="#bJ" id="w"/><path d="M30-248c118-7 216 8 213 122C240-48 200 0 122 0H30v-248zM63-27c89 8 146-16 146-99s-60-101-146-95v194" id="bK"/><g id="x"><use transform="matrix(0.05,0,0,0.05,0,0)" xlink:href="#bh"/><use transform="matrix(0.05,0,0,0.05,9,0)" xlink:href="#bE"/><use transform="matrix(0.05,0,0,0.05,19,0)" xlink:href="#bi"/><use transform="matrix(0.05,0,0,0.05,24.95,0)" xlink:href="#bi"/><use transform="matrix(0.05,0,0,0.05,30.899999999999995,0)" xlink:href="#aZ"/><use transform="matrix(0.05,0,0,0.05,40.9,0)" xlink:href="#aX"/><use transform="matrix(0.05,0,0,0.05,50.9,0)" xlink:href="#aY"/><use transform="matrix(0.05,0,0,0.05,55.900000000000006,0)" xlink:href="#bK"/><use transform="matrix(0.05,0,0,0.05,68.85,0)" xlink:href="#bg"/><use transform="matrix(0.05,0,0,0.05,78.85,0)" xlink:href="#aY"/><use transform="matrix(0.05,0,0,0.05,83.85,0)" xlink:href="#aZ"/><use transform="matrix(0.05,0,0,0.05,93.85,0)" xlink:href="#aY"/><use transform="matrix(0.05,0,0,0.05,98.85,0)" xlink:href="#aV"/><use transform="matrix(0.05,0,0,0.05,102.80000000000001,0)" xlink:href="#ba"/><use transform="matrix(0.05,0,0,0.05,117.75,0)" xlink:href="#aZ"/><use transform="matrix(0.05,0,0,0.05,127.75,0)" xlink:href="#bI"/></g><g id="y"><use transform="matrix(0.05,0,0,0.05,0,0)" xlink:href="#bh"/><use transform="matrix(0.05,0,0,0.05,9,0)" xlink:href="#bi"/><use transform="matrix(0.05,0,0,0.05,14.949999999999998,0)" xlink:href="#aZ"/><use transform="matrix(0.05,0,0,0.05,24.95,0)" xlink:href="#bg"/><use transform="matrix(0.05,0,0,0.05,34.95,0)" xlink:href="#aY"/><use transform="matrix(0.05,0,0,0.05,39.95,0)" xlink:href="#aZ"/><use transform="matrix(0.05,0,0,0.05,49.95,0)" xlink:href="#aW"/><use transform="matrix(0.05,0,0,0.05,59.95,0)" xlink:href="#bj"/><use transform="matrix(0.05,0,0,0.05,71.95,0)" xlink:href="#be"/><use transform="matrix(0.05,0,0,0.05,80.95,0)" xlink:href="#bk"/><use transform="matrix(0.05,0,0,0.05,92.95,0)" xlink:href="#ba"/><use transform="matrix(0.05,0,0,0.05,107.9,0)" xlink:href="#bb"/><use transform="matrix(0.05,0,0,0.05,117.9,0)" xlink:href="#bc"/><use transform="matrix(0.05,0,0,0.05,121.85000000000001,0)" xlink:href="#bd"/><use transform="matrix(0.05,0,0,0.05,131.85000000000002,0)" xlink:href="#be"/><use transform="matrix(0.05,0,0,0.05,140.85000000000002,0)" xlink:href="#aZ"/><use transform="matrix(0.05,0,0,0.05,150.85000000000002,0)" xlink:href="#aZ"/><use transform="matrix(0.05,0,0,0.05,160.85000000000002,0)" xlink:href="#bf"/><use transform="matrix(0.05,0,0,0.05,165.85000000000002,0)" xlink:href="#aW"/><use transform="matrix(0.05,0,0,0.05,175.85000000000002,0)" xlink:href="#bH"/></g><path d="M33-261c38 41 65 92 65 168S71 34 33 75H2C39 34 66-17 66-93S39-220 2-261h31" id="bL"/><g id="z"><use transform="matrix(0.05,0,0,0.05,0,0)" xlink:href="#aV"/><use transform="matrix(0.05,0,0,0.05,3.95,0)" xlink:href="#aX"/><use transform="matrix(0.05,0,0,0.05,13.949999999999998,0)" xlink:href="#aY"/><use transform="matrix(0.05,0,0,0.05,18.95,0)" xlink:href="#bL"/></g><path d="M16-82v-28h88v28H16" id="bM"/><path d="M18-27v-27l151-64-151-65v-27l175 74v36" id="bN"/><g id="B"><use transform="matrix(0.05,0,0,0.05,0,0)" xlink:href="#bM"/><use transform="matrix(0.05,0,0,0.05,5.95,0)" xlink:href="#bN"/></g><g id="C"><use transform="matrix(0.05,0,0,0.05,0,0)" xlink:href="#bb"/><use transform="matrix(0.05,0,0,0.05,10,0)" xlink:href="#bE"/><use transform="matrix(0.05,0,0,0.05,20,0)" xlink:href="#aX"/><use transform="matrix(0.05,0,0,0.05,30,0)" xlink:href="#bh"/><use transform="matrix(0.05,0,0,0.05,39,0)" xlink:href="#bF"/><use transform="matrix(0.05,0,0,0.05,49,0)" xlink:href="#bH"/></g><g id="D"><use transform="matrix(0.05,0,0,0.05,0,0)" xlink:href="#bD"/><use transform="matrix(0.05,0,0,0.05,12,0)" xlink:href="#bE"/><use transform="matrix(0.05,0,0,0.05,22,0)" xlink:href="#aX"/><use transform="matrix(0.05,0,0,0.05,32,0)" xlink:href="#bh"/><use transform="matrix(0.05,0,0,0.05,41,0)" xlink:href="#bF"/></g><path d="M177-190C167-65 218 103 67 71c-23-6-38-20-44-43l32-5c15 47 100 32 89-28v-30C133-14 115 1 83 1 29 1 15-40 15-95c0-56 16-97 71-98 29-1 48 16 59 35 1-10 0-23 2-32h30zM94-22c36 0 50-32 50-73 0-42-14-75-50-75-39 0-46 34-46 75s6 73 46 73" id="bO"/><g id="E"><use transform="matrix(0.05,0,0,0.05,0,0)" xlink:href="#bO"/><use transform="matrix(0.05,0,0,0.05,10,0)" xlink:href="#aZ"/><use transform="matrix(0.05,0,0,0.05,20,0)" xlink:href="#aY"/><use transform="matrix(0.05,0,0,0.05,25,0)" xlink:href="#bD"/><use transform="matrix(0.05,0,0,0.05,37,0)" xlink:href="#bE"/><use transform="matrix(0.05,0,0,0.05,47,0)" xlink:href="#aX"/><use transform="matrix(0.05,0,0,0.05,57,0)" xlink:href="#bh"/><use transform="matrix(0.05,0,0,0.05,66,0)" xlink:href="#bF"/><use transform="matrix(0.05,0,0,0.05,76,0)" xlink:href="#bj"/><use transform="matrix(0.05,0,0,0.05,88,0)" xlink:href="#be"/><use transform="matrix(0.05,0,0,0.05,97,0)" xlink:href="#bf"/><use transform="matrix(0.05,0,0,0.05,102,0)" xlink:href="#aW"/></g><g id="F"><use transform="matrix(0.05,0,0,0.05,0,0)" xlink:href="#bG"/><use transform="matrix(0.05,0,0,0.05,5.95,0)" xlink:href="#bb"/><use transform="matrix(0.05,0,0,0.05,15.949999999999998,0)" xlink:href="#bE"/><use transform="matrix(0.05,0,0,0.05,25.950000000000003,0)" xlink:href="#aX"/><use transform="matrix(0.05,0,0,0.05,35.95,0)" xlink:href="#bh"/><use transform="matrix(0.05,0,0,0.05,44.95,0)" xlink:href="#bF"/><use transform="matrix(0.05,0,0,0.05,54.95,0)" xlink:href="#bf"/><use transform="matrix(0.05,0,0,0.05,59.95,0)" xlink:href="#aW"/><use transform="matrix(0.05,0,0,0.05,69.95,0)" xlink:href="#bH"/></g><g id="G"><use transform="matrix(0.05,0,0,0.05,0,0)" xlink:href="#aV"/><use transform="matrix(0.05,0,0,0.05,3.95,0)" xlink:href="#aX"/><use transform="matrix(0.05,0,0,0.05,13.949999999999998,0)" xlink:href="#aY"/><use transform="matrix(0.05,0,0,0.05,18.95,0)" xlink:href="#bL"/></g><g id="H"><use transform="matrix(0.05,0,0,0.05,0,0)" xlink:href="#bM"/><use transform="matrix(0.05,0,0,0.05,5.95,0)" xlink:href="#bN"/></g><g id="I"><use transform="matrix(0.05,0,0,0.05,0,0)" xlink:href="#bD"/><use transform="matrix(0.05,0,0,0.05,12,0)" xlink:href="#bE"/><use transform="matrix(0.05,0,0,0.05,22,0)" xlink:href="#aX"/><use transform="matrix(0.05,0,0,0.05,32,0)" xlink:href="#bh"/><use transform="matrix(0.05,0,0,0.05,41,0)" xlink:href="#bF"/></g><path d="M135-143c-3-34-86-38-87 0 15 53 115 12 119 90S17 21 10-45l28-5c4 36 97 45 98 0-10-56-113-15-118-90-4-57 82-63 122-42 12 7 21 19 24 35" id="bP"/><g id="J"><use transform="matrix(0.05,0,0,0.05,0,0)" xlink:href="#bO"/><use transform="matrix(0.05,0,0,0.05,10,0)" xlink:href="#aZ"/><use transform="matrix(0.05,0,0,0.05,20,0)" xlink:href="#aY"/><use transform="matrix(0.05,0,0,0.05,25,0)" xlink:href="#bD"/><use transform="matrix(0.05,0,0,0.05,37,0)" xlink:href="#bE"/><use transform="matrix(0.05,0,0,0.05,47,0)" xlink:href="#aX"/><use transform="matrix(0.05,0,0,0.05,57,0)" xlink:href="#bh"/><use transform="matrix(0.05,0,0,0.05,66,0)" xlink:href="#bF"/><use transform="matrix(0.05,0,0,0.05,76,0)" xlink:href="#aZ"/><use transform="matrix(0.05,0,0,0.05,86,0)" xlink:href="#bP"/><use transform="matrix(0.05,0,0,0.05,95,0)" xlink:href="#bj"/><use transform="matrix(0.05,0,0,0.05,107,0)" xlink:href="#be"/><use transform="matrix(0.05,0,0,0.05,116,0)" xlink:href="#bk"/><use transform="matrix(0.05,0,0,0.05,128,0)" xlink:href="#ba"/><use transform="matrix(0.05,0,0,0.05,142.95,0)" xlink:href="#bb"/><use transform="matrix(0.05,0,0,0.05,152.95,0)" xlink:href="#bc"/><use transform="matrix(0.05,0,0,0.05,156.89999999999998,0)" xlink:href="#bd"/><use transform="matrix(0.05,0,0,0.05,166.89999999999998,0)" xlink:href="#be"/><use transform="matrix(0.05,0,0,0.05,175.89999999999998,0)" xlink:href="#aZ"/><use transform="matrix(0.05,0,0,0.05,185.89999999999998,0)" xlink:href="#aZ"/><use transform="matrix(0.05,0,0,0.05,195.89999999999998,0)" xlink:href="#bf"/><use transform="matrix(0.05,0,0,0.05,200.89999999999998,0)" xlink:href="#aW"/></g><g id="K"><use transform="matrix(0.05,0,0,0.05,0,0)" xlink:href="#bG"/><use transform="matrix(0.05,0,0,0.05,5.95,0)" xlink:href="#aZ"/><use transform="matrix(0.05,0,0,0.05,15.949999999999998,0)" xlink:href="#ba"/><use transform="matrix(0.05,0,0,0.05,30.899999999999995,0)" xlink:href="#bb"/><use transform="matrix(0.05,0,0,0.05,40.9,0)" xlink:href="#bc"/><use transform="matrix(0.05,0,0,0.05,44.85,0)" xlink:href="#bd"/><use transform="matrix(0.05,0,0,0.05,54.85,0)" xlink:href="#be"/><use transform="matrix(0.05,0,0,0.05,63.85,0)" xlink:href="#aZ"/><use transform="matrix(0.05,0,0,0.05,73.85,0)" xlink:href="#aZ"/><use transform="matrix(0.05,0,0,0.05,83.85,0)" xlink:href="#bf"/><use transform="matrix(0.05,0,0,0.05,88.85,0)" xlink:href="#aW"/><use transform="matrix(0.05,0,0,0.05,98.85,0)" xlink:href="#bH"/></g><g id="L"><use transform="matrix(0.05,0,0,0.05,0,0)" xlink:href="#aV"/><use transform="matrix(0.05,0,0,0.05,3.95,0)" xlink:href="#aX"/><use transform="matrix(0.05,0,0,0.05,13.949999999999998,0)" xlink:href="#aY"/><use transform="matrix(0.05,0,0,0.05,18.95,0)" xlink:href="#bI"/></g><path d="M185-189c-5-48-123-54-124 2 14 75 158 14 163 119 3 78-121 87-175 55-17-10-28-26-33-46l33-7c5 56 141 63 141-1 0-78-155-14-162-118-5-82 145-84 179-34 5 7 8 16 11 25" id="bQ"/><g id="M"><use transform="matrix(0.05,0,0,0.05,0,0)" xlink:href="#aW"/><use transform="matrix(0.05,0,0,0.05,10,0)" xlink:href="#bg"/><use transform="matrix(0.05,0,0,0.05,20,0)" xlink:href="#aY"/><use transform="matrix(0.05,0,0,0.05,25,0)" xlink:href="#aZ"/><use transform="matrix(0.05,0,0,0.05,35,0)" xlink:href="#aY"/><use transform="matrix(0.05,0,0,0.05,40,0)" xlink:href="#aV"/><use transform="matrix(0.05,0,0,0.05,43.95,0)" xlink:href="#ba"/><use transform="matrix(0.05,0,0,0.05,58.900000000000006,0)" xlink:href="#aZ"/><use transform="matrix(0.05,0,0,0.05,68.9,0)" xlink:href="#bQ"/><use transform="matrix(0.05,0,0,0.05,80.9,0)" xlink:href="#aY"/><use transform="matrix(0.05,0,0,0.05,85.9,0)" xlink:href="#bg"/><use transform="matrix(0.05,0,0,0.05,95.9,0)" xlink:href="#bi"/><use transform="matrix(0.05,0,0,0.05,101.85000000000001,0)" xlink:href="#aY"/><use transform="matrix(0.05,0,0,0.05,106.85000000000001,0)" xlink:href="#bH"/></g><g id="N"><use transform="matrix(0.05,0,0,0.05,0,0)" xlink:href="#aW"/><use transform="matrix(0.05,0,0,0.05,10,0)" xlink:href="#bg"/><use transform="matrix(0.05,0,0,0.05,20,0)" xlink:href="#aY"/><use transform="matrix(0.05,0,0,0.05,25,0)" xlink:href="#aZ"/><use transform="matrix(0.05,0,0,0.05,35,0)" xlink:href="#aY"/><use transform="matrix(0.05,0,0,0.05,40,0)" xlink:href="#aV"/><use transform="matrix(0.05,0,0,0.05,43.95,0)" xlink:href="#ba"/><use transform="matrix(0.05,0,0,0.05,58.900000000000006,0)" xlink:href="#aZ"/></g><use transform="matrix(0.05,0,0,0.05,0,0)" xlink:href="#bJ" id="O"/><path d="M101-251c82-7 93 87 43 132L82-64C71-53 59-42 53-27h129V0H18c2-99 128-94 128-182 0-28-16-43-45-43s-46 15-49 41l-32-3c6-41 34-60 81-64" id="bR"/><path d="M206 0h-36l-40-164L89 0H53L-1-190h32L70-26l43-164h34l41 164 42-164h31" id="bS"/><path d="M143 0L79-87 56-68V0H24v-261h32v163l83-92h37l-77 82L181 0h-38" id="bT"/><g id="P"><use transform="matrix(0.05,0,0,0.05,0,0)" xlink:href="#bG"/><use transform="matrix(0.05,0,0,0.05,5.95,0)" xlink:href="#bh"/><use transform="matrix(0.05,0,0,0.05,14.949999999999998,0)" xlink:href="#bE"/><use transform="matrix(0.05,0,0,0.05,24.95,0)" xlink:href="#bi"/><use transform="matrix(0.05,0,0,0.05,30.899999999999995,0)" xlink:href="#bi"/><use transform="matrix(0.05,0,0,0.05,36.85,0)" xlink:href="#aZ"/><use transform="matrix(0.05,0,0,0.05,46.85,0)" xlink:href="#aX"/><use transform="matrix(0.05,0,0,0.05,56.85,0)" xlink:href="#aY"/><use transform="matrix(0.05,0,0,0.05,61.85,0)" xlink:href="#bK"/><use transform="matrix(0.05,0,0,0.05,74.8,0)" xlink:href="#bg"/><use transform="matrix(0.05,0,0,0.05,84.8,0)" xlink:href="#aY"/><use transform="matrix(0.05,0,0,0.05,89.8,0)" xlink:href="#aZ"/><use transform="matrix(0.05,0,0,0.05,99.8,0)" xlink:href="#aY"/><use transform="matrix(0.05,0,0,0.05,104.80000000000001,0)" xlink:href="#aV"/><use transform="matrix(0.05,0,0,0.05,108.75,0)" xlink:href="#ba"/><use transform="matrix(0.05,0,0,0.05,123.7,0)" xlink:href="#aZ"/><use transform="matrix(0.05,0,0,0.05,133.7,0)" xlink:href="#bM"/><use transform="matrix(0.05,0,0,0.05,139.64999999999998,0)" xlink:href="#bR"/><use transform="matrix(0.05,0,0,0.05,149.64999999999998,0)" xlink:href="#bS"/><use transform="matrix(0.05,0,0,0.05,162.59999999999997,0)" xlink:href="#aZ"/><use transform="matrix(0.05,0,0,0.05,172.59999999999997,0)" xlink:href="#aZ"/><use transform="matrix(0.05,0,0,0.05,182.59999999999997,0)" xlink:href="#bT"/><use transform="matrix(0.05,0,0,0.05,191.59999999999997,0)" xlink:href="#bL"/><use transform="matrix(0.05,0,0,0.05,197.54999999999995,0)" xlink:href="#bI"/></g><g id="Q"><use transform="matrix(0.05,0,0,0.05,0,0)" xlink:href="#aW"/><use transform="matrix(0.05,0,0,0.05,10,0)" xlink:href="#bg"/><use transform="matrix(0.05,0,0,0.05,20,0)" xlink:href="#aY"/><use transform="matrix(0.05,0,0,0.05,25,0)" xlink:href="#aZ"/><use transform="matrix(0.05,0,0,0.05,35,0)" xlink:href="#aY"/><use transform="matrix(0.05,0,0,0.05,40,0)" xlink:href="#aV"/><use transform="matrix(0.05,0,0,0.05,43.95,0)" xlink:href="#ba"/><use transform="matrix(0.05,0,0,0.05,58.900000000000006,0)" xlink:href="#aZ"/><use transform="matrix(0.05,0,0,0.05,68.9,0)" xlink:href="#bk"/><use transform="matrix(0.05,0,0,0.05,80.9,0)" xlink:href="#aX"/><use transform="matrix(0.05,0,0,0.05,90.9,0)" xlink:href="#aW"/><use transform="matrix(0.05,0,0,0.05,100.9,0)" xlink:href="#bH"/></g><g id="R"><use transform="matrix(0.05,0,0,0.05,0,0)" xlink:href="#bh"/><use transform="matrix(0.05,0,0,0.05,9,0)" xlink:href="#bE"/><use transform="matrix(0.05,0,0,0.05,19,0)" xlink:href="#bi"/><use transform="matrix(0.05,0,0,0.05,24.95,0)" xlink:href="#bi"/><use transform="matrix(0.05,0,0,0.05,30.899999999999995,0)" xlink:href="#aZ"/><use transform="matrix(0.05,0,0,0.05,40.9,0)" xlink:href="#aX"/><use transform="matrix(0.05,0,0,0.05,50.9,0)" xlink:href="#aY"/><use transform="matrix(0.05,0,0,0.05,55.900000000000006,0)" xlink:href="#bK"/><use transform="matrix(0.05,0,0,0.05,68.85,0)" xlink:href="#bg"/><use transform="matrix(0.05,0,0,0.05,78.85,0)" xlink:href="#aY"/><use transform="matrix(0.05,0,0,0.05,83.85,0)" xlink:href="#aZ"/><use transform="matrix(0.05,0,0,0.05,93.85,0)" xlink:href="#aY"/><use transform="matrix(0.05,0,0,0.05,98.85,0)" xlink:href="#aV"/><use transform="matrix(0.05,0,0,0.05,102.80000000000001,0)" xlink:href="#ba"/><use transform="matrix(0.05,0,0,0.05,117.75,0)" xlink:href="#aZ"/><use transform="matrix(0.05,0,0,0.05,127.75,0)" xlink:href="#bL"/></g><g id="S"><use transform="matrix(0.05,0,0,0.05,0,0)" xlink:href="#bM"/><use transform="matrix(0.05,0,0,0.05,5.95,0)" xlink:href="#bN"/></g><path d="M30 0v-248h33v221h125V0H30" id="bU"/><g id="T"><use transform="matrix(0.05,0,0,0.05,0,0)" xlink:href="#bU"/><use transform="matrix(0.05,0,0,0.05,10,0)" xlink:href="#aV"/><use transform="matrix(0.05,0,0,0.05,13.949999999999998,0)" xlink:href="#bP"/><use transform="matrix(0.05,0,0,0.05,22.95,0)" xlink:href="#aY"/><use transform="matrix(0.05,0,0,0.05,27.950000000000003,0)" xlink:href="#bG"/><use transform="matrix(0.05,0,0,0.05,33.9,0)" xlink:href="#bD"/><use transform="matrix(0.05,0,0,0.05,45.9,0)" xlink:href="#bE"/><use transform="matrix(0.05,0,0,0.05,55.900000000000006,0)" xlink:href="#aX"/><use transform="matrix(0.05,0,0,0.05,65.9,0)" xlink:href="#bh"/><use transform="matrix(0.05,0,0,0.05,74.9,0)" xlink:href="#bF"/><use transform="matrix(0.05,0,0,0.05,84.9,0)" xlink:href="#bL"/></g><g id="U"><use transform="matrix(0.05,0,0,0.05,0,0)" xlink:href="#ba"/><use transform="matrix(0.05,0,0,0.05,14.950000000000001,0)" xlink:href="#bd"/><use transform="matrix(0.05,0,0,0.05,24.950000000000003,0)" xlink:href="#aW"/><use transform="matrix(0.05,0,0,0.05,34.95,0)" xlink:href="#aV"/><use transform="matrix(0.05,0,0,0.05,38.900000000000006,0)" xlink:href="#bl"/><use transform="matrix(0.05,0,0,0.05,43.900000000000006,0)" xlink:href="#be"/><use transform="matrix(0.05,0,0,0.05,52.900000000000006,0)" xlink:href="#bD"/><use transform="matrix(0.05,0,0,0.05,64.9,0)" xlink:href="#bE"/><use transform="matrix(0.05,0,0,0.05,74.9,0)" xlink:href="#aX"/><use transform="matrix(0.05,0,0,0.05,84.9,0)" xlink:href="#bh"/><use transform="matrix(0.05,0,0,0.05,93.9,0)" xlink:href="#bF"/></g><g id="V"><use transform="matrix(0.05,0,0,0.05,0,0)" xlink:href="#bG"/><use transform="matrix(0.05,0,0,0.05,5.95,0)" xlink:href="#bb"/><use transform="matrix(0.05,0,0,0.05,15.949999999999998,0)" xlink:href="#bE"/><use transform="matrix(0.05,0,0,0.05,25.950000000000003,0)" xlink:href="#aX"/><use transform="matrix(0.05,0,0,0.05,35.95,0)" xlink:href="#bh"/><use transform="matrix(0.05,0,0,0.05,44.95,0)" xlink:href="#bF"/><use transform="matrix(0.05,0,0,0.05,54.95,0)" xlink:href="#bH"/></g><g id="W"><use transform="matrix(0.05,0,0,0.05,0,0)" xlink:href="#bD"/><use transform="matrix(0.05,0,0,0.05,12,0)" xlink:href="#bE"/><use transform="matrix(0.05,0,0,0.05,22,0)" xlink:href="#aX"/><use transform="matrix(0.05,0,0,0.05,32,0)" xlink:href="#bh"/><use transform="matrix(0.05,0,0,0.05,41,0)" xlink:href="#bF"/><use transform="matrix(0.05,0,0,0.05,51,0)" xlink:href="#bL"/></g><path d="M212-179c-10-28-35-45-73-45-59 0-87 40-87 99 0 60 29 101 89 101 43 0 62-24 78-52l27 14C228-24 195 4 139 4 59 4 22-46 18-125c-6-104 99-153 187-111 19 9 31 26 39 46" id="bV"/><path d="M232-93c-1 65-40 97-104 97C67 4 28-28 28-90v-158h33c8 89-33 224 67 224 102 0 64-133 71-224h33v155" id="bW"/><path d="M127-220V0H93v-220H8v-28h204v28h-85" id="bX"/><g id="X"><use transform="matrix(0.05,0,0,0.05,0,0)" xlink:href="#bO"/><use transform="matrix(0.05,0,0,0.05,10,0)" xlink:href="#aZ"/><use transform="matrix(0.05,0,0,0.05,20,0)" xlink:href="#aY"/><use transform="matrix(0.05,0,0,0.05,25,0)" xlink:href="#bD"/><use transform="matrix(0.05,0,0,0.05,37,0)" xlink:href="#bE"/><use transform="matrix(0.05,0,0,0.05,47,0)" xlink:href="#aX"/><use transform="matrix(0.05,0,0,0.05,57,0)" xlink:href="#bh"/><use transform="matrix(0.05,0,0,0.05,66,0)" xlink:href="#bF"/><use transform="matrix(0.05,0,0,0.05,76,0)" xlink:href="#bV"/><use transform="matrix(0.05,0,0,0.05,88.95,0)" xlink:href="#bd"/><use transform="matrix(0.05,0,0,0.05,98.95,0)" xlink:href="#bE"/><use transform="matrix(0.05,0,0,0.05,108.95,0)" xlink:href="#aX"/><use transform="matrix(0.05,0,0,0.05,118.95,0)" xlink:href="#aY"/><use transform="matrix(0.05,0,0,0.05,123.95,0)" xlink:href="#bW"/><use transform="matrix(0.05,0,0,0.05,136.9,0)" xlink:href="#bb"/><use transform="matrix(0.05,0,0,0.05,146.9,0)" xlink:href="#bX"/><use transform="matrix(0.05,0,0,0.05,155.85,0)" xlink:href="#bd"/><use transform="matrix(0.05,0,0,0.05,165.85,0)" xlink:href="#bD"/><use transform="matrix(0.05,0,0,0.05,177.85,0)" xlink:href="#bE"/><use transform="matrix(0.05,0,0,0.05,187.85,0)" xlink:href="#aX"/><use transform="matrix(0.05,0,0,0.05,197.85,0)" xlink:href="#bh"/><use transform="matrix(0.05,0,0,0.05,206.85000000000002,0)" xlink:href="#bF"/></g><g id="Y"><use transform="matrix(0.05,0,0,0.05,0,0)" xlink:href="#aV"/><use transform="matrix(0.05,0,0,0.05,3.95,0)" xlink:href="#aX"/><use transform="matrix(0.05,0,0,0.05,13.949999999999998,0)" xlink:href="#aY"/></g><path fill="#3a414a" d="M127-220V0H93v-220H8v-28h204v28h-85" id="bY"/><path fill="#3a414a" d="M143 0L79-87 56-68V0H24v-261h32v163l83-92h37l-77 82L181 0h-38" id="bZ"/><g id="Z"><use transform="matrix(0.06172839506172839,0,0,0.06172839506172839,0,0)" xlink:href="#bY"/><use transform="matrix(0.06172839506172839,0,0,0.06172839506172839,12.716049382716047,0)" xlink:href="#bt"/><use transform="matrix(0.06172839506172839,0,0,0.06172839506172839,17.592592592592588,0)" xlink:href="#bn"/><use transform="matrix(0.06172839506172839,0,0,0.06172839506172839,36.04938271604938,0)" xlink:href="#bs"/><use transform="matrix(0.06172839506172839,0,0,0.06172839506172839,48.395061728395056,0)" xlink:href="#bC"/><use transform="matrix(0.06172839506172839,0,0,0.06172839506172839,64.38271604938271,0)" xlink:href="#bp"/><use transform="matrix(0.06172839506172839,0,0,0.06172839506172839,69.25925925925925,0)" xlink:href="#bq"/><use transform="matrix(0.06172839506172839,0,0,0.06172839506172839,81.60493827160494,0)" xlink:href="#aT"/><use transform="matrix(0.06172839506172839,0,0,0.06172839506172839,92.71604938271605,0)" xlink:href="#bZ"/></g><g id="aa"><use transform="matrix(0.06172839506172839,0,0,0.06172839506172839,0,0)" xlink:href="#bo"/><use transform="matrix(0.06172839506172839,0,0,0.06172839506172839,12.345679012345679,0)" xlink:href="#aR"/><use transform="matrix(0.06172839506172839,0,0,0.06172839506172839,24.691358024691358,0)" xlink:href="#aS"/><use transform="matrix(0.06172839506172839,0,0,0.06172839506172839,37.03703703703704,0)" xlink:href="#aT"/><use transform="matrix(0.06172839506172839,0,0,0.06172839506172839,48.14814814814815,0)" xlink:href="#aU"/><use transform="matrix(0.06172839506172839,0,0,0.06172839506172839,60.49382716049383,0)" xlink:href="#bC"/><use transform="matrix(0.06172839506172839,0,0,0.06172839506172839,76.48148148148148,0)" xlink:href="#bq"/><use transform="matrix(0.06172839506172839,0,0,0.06172839506172839,88.82716049382717,0)" xlink:href="#aS"/><use transform="matrix(0.06172839506172839,0,0,0.06172839506172839,101.17283950617285,0)" xlink:href="#bv"/><use transform="matrix(0.06172839506172839,0,0,0.06172839506172839,107.34567901234568,0)" xlink:href="#bz"/><use transform="matrix(0.06172839506172839,0,0,0.06172839506172839,114.69135802469137,0)" xlink:href="#bq"/><use transform="matrix(0.06172839506172839,0,0,0.06172839506172839,127.03703703703705,0)" xlink:href="#bp"/><use transform="matrix(0.06172839506172839,0,0,0.06172839506172839,131.9135802469136,0)" xlink:href="#bp"/><use transform="matrix(0.06172839506172839,0,0,0.06172839506172839,136.79012345679013,0)" xlink:href="#bs"/><use transform="matrix(0.06172839506172839,0,0,0.06172839506172839,149.1358024691358,0)" xlink:href="#bz"/></g><g id="ab"><use transform="matrix(0.06172839506172839,0,0,0.06172839506172839,0,0)" xlink:href="#bs"/><use transform="matrix(0.06172839506172839,0,0,0.06172839506172839,12.345679012345679,0)" xlink:href="#bn"/><use transform="matrix(0.06172839506172839,0,0,0.06172839506172839,30.80246913580247,0)" xlink:href="#bo"/><use transform="matrix(0.06172839506172839,0,0,0.06172839506172839,43.148148148148145,0)" xlink:href="#bp"/><use transform="matrix(0.06172839506172839,0,0,0.06172839506172839,48.02469135802469,0)" xlink:href="#bq"/><use transform="matrix(0.06172839506172839,0,0,0.06172839506172839,60.37037037037037,0)" xlink:href="#br"/><use transform="matrix(0.06172839506172839,0,0,0.06172839506172839,71.48148148148148,0)" xlink:href="#bs"/><use transform="matrix(0.06172839506172839,0,0,0.06172839506172839,83.82716049382717,0)" xlink:href="#bs"/><use transform="matrix(0.06172839506172839,0,0,0.06172839506172839,96.17283950617285,0)" xlink:href="#bC"/><use transform="matrix(0.06172839506172839,0,0,0.06172839506172839,112.16049382716051,0)" xlink:href="#bq"/><use transform="matrix(0.06172839506172839,0,0,0.06172839506172839,124.50617283950619,0)" xlink:href="#aS"/><use transform="matrix(0.06172839506172839,0,0,0.06172839506172839,136.85185185185188,0)" xlink:href="#bv"/><use transform="matrix(0.06172839506172839,0,0,0.06172839506172839,143.0246913580247,0)" xlink:href="#bz"/><use transform="matrix(0.06172839506172839,0,0,0.06172839506172839,150.37037037037038,0)" xlink:href="#bq"/><use transform="matrix(0.06172839506172839,0,0,0.06172839506172839,162.71604938271605,0)" xlink:href="#bp"/><use transform="matrix(0.06172839506172839,0,0,0.06172839506172839,167.59259259259258,0)" xlink:href="#bp"/><use transform="matrix(0.06172839506172839,0,0,0.06172839506172839,172.4691358024691,0)" xlink:href="#bs"/><use transform="matrix(0.06172839506172839,0,0,0.06172839506172839,184.81481481481478,0)" xlink:href="#bz"/></g><g id="ac"><use transform="matrix(0.06172839506172839,0,0,0.06172839506172839,0,0)" xlink:href="#bm"/><use transform="matrix(0.06172839506172839,0,0,0.06172839506172839,14.814814814814813,0)" xlink:href="#bn"/><use transform="matrix(0.06172839506172839,0,0,0.06172839506172839,33.2716049382716,0)" xlink:href="#bo"/><use transform="matrix(0.06172839506172839,0,0,0.06172839506172839,45.61728395061728,0)" xlink:href="#bp"/><use transform="matrix(0.06172839506172839,0,0,0.06172839506172839,50.49382716049382,0)" xlink:href="#bq"/><use transform="matrix(0.06172839506172839,0,0,0.06172839506172839,62.8395061728395,0)" xlink:href="#br"/><use transform="matrix(0.06172839506172839,0,0,0.06172839506172839,73.9506172839506,0)" xlink:href="#bs"/><use transform="matrix(0.06172839506172839,0,0,0.06172839506172839,86.29629629629629,0)" xlink:href="#bs"/><use transform="matrix(0.06172839506172839,0,0,0.06172839506172839,98.64197530864197,0)" xlink:href="#bC"/><use transform="matrix(0.06172839506172839,0,0,0.06172839506172839,114.62962962962963,0)" xlink:href="#bq"/><use transform="matrix(0.06172839506172839,0,0,0.06172839506172839,126.97530864197533,0)" xlink:href="#aS"/><use transform="matrix(0.06172839506172839,0,0,0.06172839506172839,139.320987654321,0)" xlink:href="#bv"/><use transform="matrix(0.06172839506172839,0,0,0.06172839506172839,145.49382716049382,0)" xlink:href="#bz"/><use transform="matrix(0.06172839506172839,0,0,0.06172839506172839,152.8395061728395,0)" xlink:href="#bq"/><use transform="matrix(0.06172839506172839,0,0,0.06172839506172839,165.18518518518516,0)" xlink:href="#bp"/><use transform="matrix(0.06172839506172839,0,0,0.06172839506172839,170.0617283950617,0)" xlink:href="#bp"/><use transform="matrix(0.06172839506172839,0,0,0.06172839506172839,174.93827160493822,0)" xlink:href="#bs"/><use transform="matrix(0.06172839506172839,0,0,0.06172839506172839,187.2839506172839,0)" xlink:href="#bz"/></g><path fill="#3a414a" d="M205 0l-28-72H64L36 0H1l101-248h38L239 0h-34zm-38-99l-47-123c-12 45-31 82-46 123h93" id="ca"/><g id="ad"><use transform="matrix(0.06172839506172839,0,0,0.06172839506172839,0,0)" xlink:href="#bs"/><use transform="matrix(0.06172839506172839,0,0,0.06172839506172839,12.345679012345679,0)" xlink:href="#bn"/><use transform="matrix(0.06172839506172839,0,0,0.06172839506172839,30.80246913580247,0)" xlink:href="#bo"/><use transform="matrix(0.06172839506172839,0,0,0.06172839506172839,43.148148148148145,0)" xlink:href="#bp"/><use transform="matrix(0.06172839506172839,0,0,0.06172839506172839,48.02469135802469,0)" xlink:href="#bq"/><use transform="matrix(0.06172839506172839,0,0,0.06172839506172839,60.37037037037037,0)" xlink:href="#br"/><use transform="matrix(0.06172839506172839,0,0,0.06172839506172839,71.48148148148148,0)" xlink:href="#bs"/><use transform="matrix(0.06172839506172839,0,0,0.06172839506172839,83.82716049382717,0)" xlink:href="#bs"/><use transform="matrix(0.06172839506172839,0,0,0.06172839506172839,96.17283950617285,0)" xlink:href="#ca"/><use transform="matrix(0.06172839506172839,0,0,0.06172839506172839,110.98765432098766,0)" xlink:href="#aR"/><use transform="matrix(0.06172839506172839,0,0,0.06172839506172839,123.33333333333334,0)" xlink:href="#bv"/><use transform="matrix(0.06172839506172839,0,0,0.06172839506172839,129.50617283950618,0)" xlink:href="#aU"/></g><g id="ae"><use transform="matrix(0.06172839506172839,0,0,0.06172839506172839,0,0)" xlink:href="#bm"/><use transform="matrix(0.06172839506172839,0,0,0.06172839506172839,14.814814814814813,0)" xlink:href="#bn"/><use transform="matrix(0.06172839506172839,0,0,0.06172839506172839,33.2716049382716,0)" xlink:href="#bo"/><use transform="matrix(0.06172839506172839,0,0,0.06172839506172839,45.61728395061728,0)" xlink:href="#bp"/><use transform="matrix(0.06172839506172839,0,0,0.06172839506172839,50.49382716049382,0)" xlink:href="#bq"/><use transform="matrix(0.06172839506172839,0,0,0.06172839506172839,62.8395061728395,0)" xlink:href="#br"/><use transform="matrix(0.06172839506172839,0,0,0.06172839506172839,73.9506172839506,0)" xlink:href="#bs"/><use transform="matrix(0.06172839506172839,0,0,0.06172839506172839,86.29629629629629,0)" xlink:href="#bs"/><use transform="matrix(0.06172839506172839,0,0,0.06172839506172839,98.64197530864197,0)" xlink:href="#ca"/><use transform="matrix(0.06172839506172839,0,0,0.06172839506172839,113.45679012345678,0)" xlink:href="#aR"/><use transform="matrix(0.06172839506172839,0,0,0.06172839506172839,125.80246913580247,0)" xlink:href="#bv"/><use transform="matrix(0.06172839506172839,0,0,0.06172839506172839,131.97530864197532,0)" xlink:href="#aU"/></g><g id="af"><use transform="matrix(0.06172839506172839,0,0,0.06172839506172839,0,0)" xlink:href="#aT"/><use transform="matrix(0.06172839506172839,0,0,0.06172839506172839,11.11111111111111,0)" xlink:href="#bz"/><use transform="matrix(0.06172839506172839,0,0,0.06172839506172839,18.45679012345679,0)" xlink:href="#bs"/><use transform="matrix(0.06172839506172839,0,0,0.06172839506172839,30.80246913580247,0)" xlink:href="#bx"/><use transform="matrix(0.06172839506172839,0,0,0.06172839506172839,43.148148148148145,0)" xlink:href="#bv"/><use transform="matrix(0.06172839506172839,0,0,0.06172839506172839,49.32098765432099,0)" xlink:href="#bs"/><use transform="matrix(0.06172839506172839,0,0,0.06172839506172839,61.666666666666664,0)" xlink:href="#bm"/><use transform="matrix(0.06172839506172839,0,0,0.06172839506172839,76.48148148148148,0)" xlink:href="#bn"/><use transform="matrix(0.06172839506172839,0,0,0.06172839506172839,94.93827160493827,0)" xlink:href="#bo"/><use transform="matrix(0.06172839506172839,0,0,0.06172839506172839,107.28395061728395,0)" xlink:href="#bp"/><use transform="matrix(0.06172839506172839,0,0,0.06172839506172839,112.1604938271605,0)" xlink:href="#bq"/><use transform="matrix(0.06172839506172839,0,0,0.06172839506172839,124.50617283950618,0)" xlink:href="#br"/><use transform="matrix(0.06172839506172839,0,0,0.06172839506172839,135.6172839506173,0)" xlink:href="#bs"/><use transform="matrix(0.06172839506172839,0,0,0.06172839506172839,147.96296296296296,0)" xlink:href="#bs"/></g><path fill="#3a414a" d="M87 75C49 33 22-17 22-94c0-76 28-126 65-167h31c-38 41-64 92-64 168S80 34 118 75H87" id="cb"/><path fill="#3a414a" d="M33-154v-36h34v36H33zM33 0v-36h34V0H33" id="cc"/><g id="ag"><use transform="matrix(0.06172839506172839,0,0,0.06172839506172839,0,0)" xlink:href="#cb"/><use transform="matrix(0.06172839506172839,0,0,0.06172839506172839,7.345679012345679,0)" xlink:href="#bw"/><use transform="matrix(0.06172839506172839,0,0,0.06172839506172839,13.518518518518519,0)" xlink:href="#aS"/><use transform="matrix(0.06172839506172839,0,0,0.06172839506172839,25.864197530864196,0)" xlink:href="#bx"/><use transform="matrix(0.06172839506172839,0,0,0.06172839506172839,38.20987654320987,0)" xlink:href="#bn"/><use transform="matrix(0.06172839506172839,0,0,0.06172839506172839,56.66666666666666,0)" xlink:href="#bs"/><use transform="matrix(0.06172839506172839,0,0,0.06172839506172839,69.01234567901234,0)" xlink:href="#cc"/></g><path fill="#3a414a" d="M68-38c1 34 0 65-14 84H32c9-13 17-26 17-46H33v-38h35" id="cd"/><g id="ah"><use transform="matrix(0.06172839506172839,0,0,0.06172839506172839,0,0)" xlink:href="#by"/><use transform="matrix(0.06172839506172839,0,0,0.06172839506172839,11.11111111111111,0)" xlink:href="#bv"/><use transform="matrix(0.06172839506172839,0,0,0.06172839506172839,17.28395061728395,0)" xlink:href="#bz"/><use transform="matrix(0.06172839506172839,0,0,0.06172839506172839,24.629629629629626,0)" xlink:href="#bt"/><use transform="matrix(0.06172839506172839,0,0,0.06172839506172839,29.50617283950617,0)" xlink:href="#aS"/><use transform="matrix(0.06172839506172839,0,0,0.06172839506172839,41.85185185185185,0)" xlink:href="#bA"/><use transform="matrix(0.06172839506172839,0,0,0.06172839506172839,54.197530864197525,0)" xlink:href="#cd"/></g><g id="ai"><use transform="matrix(0.06172839506172839,0,0,0.06172839506172839,0,0)" xlink:href="#bp"/><use transform="matrix(0.06172839506172839,0,0,0.06172839506172839,4.876543209876543,0)" xlink:href="#aS"/><use transform="matrix(0.06172839506172839,0,0,0.06172839506172839,17.22222222222222,0)" xlink:href="#bx"/><use transform="matrix(0.06172839506172839,0,0,0.06172839506172839,29.5679012345679,0)" xlink:href="#bn"/><use transform="matrix(0.06172839506172839,0,0,0.06172839506172839,48.02469135802468,0)" xlink:href="#bs"/><use transform="matrix(0.06172839506172839,0,0,0.06172839506172839,60.37037037037036,0)" xlink:href="#cc"/></g><g id="aj"><use transform="matrix(0.06172839506172839,0,0,0.06172839506172839,0,0)" xlink:href="#bx"/><use transform="matrix(0.06172839506172839,0,0,0.06172839506172839,12.345679012345679,0)" xlink:href="#bu"/><use transform="matrix(0.06172839506172839,0,0,0.06172839506172839,24.691358024691358,0)" xlink:href="#bn"/><use transform="matrix(0.06172839506172839,0,0,0.06172839506172839,43.148148148148145,0)" xlink:href="#bt"/><use transform="matrix(0.06172839506172839,0,0,0.06172839506172839,48.02469135802469,0)" xlink:href="#aS"/><use transform="matrix(0.06172839506172839,0,0,0.06172839506172839,60.37037037037037,0)" xlink:href="#cc"/></g><g id="ak"><use transform="matrix(0.06172839506172839,0,0,0.06172839506172839,0,0)" xlink:href="#bB"/><use transform="matrix(0.06172839506172839,0,0,0.06172839506172839,12.345679012345679,0)" xlink:href="#bq"/><use transform="matrix(0.06172839506172839,0,0,0.06172839506172839,24.691358024691358,0)" xlink:href="#bq"/><use transform="matrix(0.06172839506172839,0,0,0.06172839506172839,37.03703703703704,0)" xlink:href="#bp"/></g><path fill="#3a414a" d="M18-150v-26h174v26H18zm0 90v-26h174v26H18" id="ce"/><use transform="matrix(0.06172839506172839,0,0,0.06172839506172839,0,0)" xlink:href="#ce" id="al"/><path fill="#3a414a" d="M33-261c38 41 65 92 65 168S71 34 33 75H2C39 34 66-17 66-93S39-220 2-261h31" id="cf"/><g id="am"><use transform="matrix(0.06172839506172839,0,0,0.06172839506172839,0,0)" xlink:href="#bw"/><use transform="matrix(0.06172839506172839,0,0,0.06172839506172839,6.172839506172839,0)" xlink:href="#bx"/><use transform="matrix(0.06172839506172839,0,0,0.06172839506172839,18.51851851851852,0)" xlink:href="#bp"/><use transform="matrix(0.06172839506172839,0,0,0.06172839506172839,23.395061728395063,0)" xlink:href="#by"/><use transform="matrix(0.06172839506172839,0,0,0.06172839506172839,34.50617283950618,0)" xlink:href="#bs"/><use transform="matrix(0.06172839506172839,0,0,0.06172839506172839,46.851851851851855,0)" xlink:href="#cf"/></g><path fill="#3a414a" d="M16-82v-28h88v28H16" id="cg"/><path fill="#3a414a" d="M18-27v-27l151-64-151-65v-27l175 74v36" id="ch"/><g id="an"><use transform="matrix(0.06172839506172839,0,0,0.06172839506172839,0,0)" xlink:href="#cg"/><use transform="matrix(0.06172839506172839,0,0,0.06172839506172839,7.345679012345679,0)" xlink:href="#ch"/></g><g id="ao"><use transform="matrix(0.06172839506172839,0,0,0.06172839506172839,0,0)" xlink:href="#bm"/><use transform="matrix(0.06172839506172839,0,0,0.06172839506172839,14.814814814814813,0)" xlink:href="#bn"/><use transform="matrix(0.06172839506172839,0,0,0.06172839506172839,33.2716049382716,0)" xlink:href="#bo"/><use transform="matrix(0.06172839506172839,0,0,0.06172839506172839,45.61728395061728,0)" xlink:href="#bp"/><use transform="matrix(0.06172839506172839,0,0,0.06172839506172839,50.49382716049382,0)" xlink:href="#bq"/><use transform="matrix(0.06172839506172839,0,0,0.06172839506172839,62.8395061728395,0)" xlink:href="#br"/><use transform="matrix(0.06172839506172839,0,0,0.06172839506172839,73.9506172839506,0)" xlink:href="#bs"/><use transform="matrix(0.06172839506172839,0,0,0.06172839506172839,86.29629629629629,0)" xlink:href="#bs"/></g><path fill="#3a414a" d="M160-131c35 5 61 23 61 61C221 17 115-2 30 0v-248c76 3 177-17 177 60 0 33-19 50-47 57zm-97-11c50-1 110 9 110-42 0-47-63-36-110-37v79zm0 115c55-2 124 14 124-45 0-56-70-42-124-44v89" id="ci"/><path fill="#3a414a" d="M33 0v-248h34V0H33" id="cj"/><g id="ap"><use transform="matrix(0.06172839506172839,0,0,0.06172839506172839,0,0)" xlink:href="#bA"/><use transform="matrix(0.06172839506172839,0,0,0.06172839506172839,12.345679012345679,0)" xlink:href="#bs"/><use transform="matrix(0.06172839506172839,0,0,0.06172839506172839,24.691358024691358,0)" xlink:href="#bv"/><use transform="matrix(0.06172839506172839,0,0,0.06172839506172839,30.864197530864196,0)" xlink:href="#bm"/><use transform="matrix(0.06172839506172839,0,0,0.06172839506172839,45.67901234567901,0)" xlink:href="#bn"/><use transform="matrix(0.06172839506172839,0,0,0.06172839506172839,64.1358024691358,0)" xlink:href="#bo"/><use transform="matrix(0.06172839506172839,0,0,0.06172839506172839,76.48148148148148,0)" xlink:href="#bp"/><use transform="matrix(0.06172839506172839,0,0,0.06172839506172839,81.35802469135803,0)" xlink:href="#bq"/><use transform="matrix(0.06172839506172839,0,0,0.06172839506172839,93.70370370370371,0)" xlink:href="#br"/><use transform="matrix(0.06172839506172839,0,0,0.06172839506172839,104.81481481481482,0)" xlink:href="#bs"/><use transform="matrix(0.06172839506172839,0,0,0.06172839506172839,117.16049382716051,0)" xlink:href="#bs"/><use transform="matrix(0.06172839506172839,0,0,0.06172839506172839,129.50617283950618,0)" xlink:href="#ci"/><use transform="matrix(0.06172839506172839,0,0,0.06172839506172839,144.320987654321,0)" xlink:href="#br"/><use transform="matrix(0.06172839506172839,0,0,0.06172839506172839,155.4320987654321,0)" xlink:href="#cj"/><use transform="matrix(0.06172839506172839,0,0,0.06172839506172839,161.60493827160494,0)" xlink:href="#bu"/></g><g id="aq"><use transform="matrix(0.06172839506172839,0,0,0.06172839506172839,0,0)" xlink:href="#cb"/><use transform="matrix(0.06172839506172839,0,0,0.06172839506172839,7.345679012345679,0)" xlink:href="#bs"/><use transform="matrix(0.06172839506172839,0,0,0.06172839506172839,19.691358024691358,0)" xlink:href="#bn"/><use transform="matrix(0.06172839506172839,0,0,0.06172839506172839,38.148148148148145,0)" xlink:href="#bo"/><use transform="matrix(0.06172839506172839,0,0,0.06172839506172839,50.49382716049382,0)" xlink:href="#bp"/><use transform="matrix(0.06172839506172839,0,0,0.06172839506172839,55.37037037037037,0)" xlink:href="#bq"/><use transform="matrix(0.06172839506172839,0,0,0.06172839506172839,67.71604938271605,0)" xlink:href="#br"/><use transform="matrix(0.06172839506172839,0,0,0.06172839506172839,78.82716049382717,0)" xlink:href="#bs"/><use transform="matrix(0.06172839506172839,0,0,0.06172839506172839,91.17283950617285,0)" xlink:href="#bs"/><use transform="matrix(0.06172839506172839,0,0,0.06172839506172839,103.51851851851853,0)" xlink:href="#cj"/><use transform="matrix(0.06172839506172839,0,0,0.06172839506172839,109.69135802469137,0)" xlink:href="#bu"/><use transform="matrix(0.06172839506172839,0,0,0.06172839506172839,122.03703703703705,0)" xlink:href="#cc"/></g><g id="ar"><use transform="matrix(0.06172839506172839,0,0,0.06172839506172839,0,0)" xlink:href="#bt"/><use transform="matrix(0.06172839506172839,0,0,0.06172839506172839,4.876543209876543,0)" xlink:href="#aS"/><use transform="matrix(0.06172839506172839,0,0,0.06172839506172839,17.22222222222222,0)" xlink:href="#bv"/><use transform="matrix(0.06172839506172839,0,0,0.06172839506172839,23.39506172839506,0)" xlink:href="#cf"/></g><g id="as"><use transform="matrix(0.06172839506172839,0,0,0.06172839506172839,0,0)" xlink:href="#cg"/><use transform="matrix(0.06172839506172839,0,0,0.06172839506172839,7.345679012345679,0)" xlink:href="#ch"/></g><g id="at"><use transform="matrix(0.06172839506172839,0,0,0.06172839506172839,0,0)" xlink:href="#bn"/><use transform="matrix(0.06172839506172839,0,0,0.06172839506172839,18.456790123456788,0)" xlink:href="#bq"/><use transform="matrix(0.06172839506172839,0,0,0.06172839506172839,30.80246913580247,0)" xlink:href="#bu"/><use transform="matrix(0.06172839506172839,0,0,0.06172839506172839,43.148148148148145,0)" xlink:href="#bt"/><use transform="matrix(0.06172839506172839,0,0,0.06172839506172839,48.02469135802469,0)" xlink:href="#bw"/><use transform="matrix(0.06172839506172839,0,0,0.06172839506172839,54.19753086419753,0)" xlink:href="#br"/><use transform="matrix(0.06172839506172839,0,0,0.06172839506172839,65.30864197530865,0)" xlink:href="#bm"/><use transform="matrix(0.06172839506172839,0,0,0.06172839506172839,80.12345679012346,0)" xlink:href="#bn"/><use transform="matrix(0.06172839506172839,0,0,0.06172839506172839,98.58024691358024,0)" xlink:href="#bo"/><use transform="matrix(0.06172839506172839,0,0,0.06172839506172839,110.92592592592592,0)" xlink:href="#bp"/><use transform="matrix(0.06172839506172839,0,0,0.06172839506172839,115.80246913580247,0)" xlink:href="#bq"/><use transform="matrix(0.06172839506172839,0,0,0.06172839506172839,128.14814814814815,0)" xlink:href="#br"/><use transform="matrix(0.06172839506172839,0,0,0.06172839506172839,139.25925925925927,0)" xlink:href="#bs"/><use transform="matrix(0.06172839506172839,0,0,0.06172839506172839,151.60493827160494,0)" xlink:href="#bs"/></g><g id="au"><use transform="matrix(0.06172839506172839,0,0,0.06172839506172839,0,0)" xlink:href="#cb"/><use transform="matrix(0.06172839506172839,0,0,0.06172839506172839,7.345679012345679,0)" xlink:href="#bs"/><use transform="matrix(0.06172839506172839,0,0,0.06172839506172839,19.691358024691358,0)" xlink:href="#bn"/><use transform="matrix(0.06172839506172839,0,0,0.06172839506172839,38.148148148148145,0)" xlink:href="#bo"/><use transform="matrix(0.06172839506172839,0,0,0.06172839506172839,50.49382716049382,0)" xlink:href="#bp"/><use transform="matrix(0.06172839506172839,0,0,0.06172839506172839,55.37037037037037,0)" xlink:href="#bq"/><use transform="matrix(0.06172839506172839,0,0,0.06172839506172839,67.71604938271605,0)" xlink:href="#br"/><use transform="matrix(0.06172839506172839,0,0,0.06172839506172839,78.82716049382717,0)" xlink:href="#bs"/><use transform="matrix(0.06172839506172839,0,0,0.06172839506172839,91.17283950617285,0)" xlink:href="#bs"/><use transform="matrix(0.06172839506172839,0,0,0.06172839506172839,103.51851851851853,0)" xlink:href="#cc"/></g><g id="av"><use transform="matrix(0.06172839506172839,0,0,0.06172839506172839,0,0)" xlink:href="#bm"/><use transform="matrix(0.06172839506172839,0,0,0.06172839506172839,14.814814814814813,0)" xlink:href="#bn"/><use transform="matrix(0.06172839506172839,0,0,0.06172839506172839,33.2716049382716,0)" xlink:href="#bo"/><use transform="matrix(0.06172839506172839,0,0,0.06172839506172839,45.61728395061728,0)" xlink:href="#bp"/><use transform="matrix(0.06172839506172839,0,0,0.06172839506172839,50.49382716049382,0)" xlink:href="#bq"/><use transform="matrix(0.06172839506172839,0,0,0.06172839506172839,62.8395061728395,0)" xlink:href="#br"/><use transform="matrix(0.06172839506172839,0,0,0.06172839506172839,73.9506172839506,0)" xlink:href="#bs"/><use transform="matrix(0.06172839506172839,0,0,0.06172839506172839,86.29629629629629,0)" xlink:href="#bs"/><use transform="matrix(0.06172839506172839,0,0,0.06172839506172839,98.64197530864197,0)" xlink:href="#cf"/></g><g id="aw"><use transform="matrix(0.06172839506172839,0,0,0.06172839506172839,0,0)" xlink:href="#aT"/><use transform="matrix(0.06172839506172839,0,0,0.06172839506172839,11.11111111111111,0)" xlink:href="#bz"/><use transform="matrix(0.06172839506172839,0,0,0.06172839506172839,18.45679012345679,0)" xlink:href="#bs"/><use transform="matrix(0.06172839506172839,0,0,0.06172839506172839,30.80246913580247,0)" xlink:href="#bx"/><use transform="matrix(0.06172839506172839,0,0,0.06172839506172839,43.148148148148145,0)" xlink:href="#bv"/><use transform="matrix(0.06172839506172839,0,0,0.06172839506172839,49.32098765432099,0)" xlink:href="#bs"/><use transform="matrix(0.06172839506172839,0,0,0.06172839506172839,61.666666666666664,0)" xlink:href="#ca"/><use transform="matrix(0.06172839506172839,0,0,0.06172839506172839,76.48148148148148,0)" xlink:href="#aR"/><use transform="matrix(0.06172839506172839,0,0,0.06172839506172839,88.82716049382717,0)" xlink:href="#bv"/><use transform="matrix(0.06172839506172839,0,0,0.06172839506172839,95,0)" xlink:href="#aU"/></g><g id="ax"><use transform="matrix(0.06172839506172839,0,0,0.06172839506172839,0,0)" xlink:href="#cb"/><use transform="matrix(0.06172839506172839,0,0,0.06172839506172839,7.345679012345679,0)" xlink:href="#aR"/><use transform="matrix(0.06172839506172839,0,0,0.06172839506172839,19.691358024691358,0)" xlink:href="#by"/><use transform="matrix(0.06172839506172839,0,0,0.06172839506172839,30.80246913580247,0)" xlink:href="#bs"/><use transform="matrix(0.06172839506172839,0,0,0.06172839506172839,43.148148148148145,0)" xlink:href="#bz"/><use transform="matrix(0.06172839506172839,0,0,0.06172839506172839,50.49382716049382,0)" xlink:href="#aS"/><use transform="matrix(0.06172839506172839,0,0,0.06172839506172839,62.8395061728395,0)" xlink:href="#bx"/><use transform="matrix(0.06172839506172839,0,0,0.06172839506172839,75.18518518518518,0)" xlink:href="#bn"/><use transform="matrix(0.06172839506172839,0,0,0.06172839506172839,93.64197530864196,0)" xlink:href="#bs"/><use transform="matrix(0.06172839506172839,0,0,0.06172839506172839,105.98765432098764,0)" xlink:href="#cc"/></g><g id="ay"><use transform="matrix(0.06172839506172839,0,0,0.06172839506172839,0,0)" xlink:href="#by"/><use transform="matrix(0.06172839506172839,0,0,0.06172839506172839,11.11111111111111,0)" xlink:href="#bv"/><use transform="matrix(0.06172839506172839,0,0,0.06172839506172839,17.28395061728395,0)" xlink:href="#bz"/><use transform="matrix(0.06172839506172839,0,0,0.06172839506172839,24.629629629629626,0)" xlink:href="#bt"/><use transform="matrix(0.06172839506172839,0,0,0.06172839506172839,29.50617283950617,0)" xlink:href="#aS"/><use transform="matrix(0.06172839506172839,0,0,0.06172839506172839,41.85185185185185,0)" xlink:href="#bA"/><use transform="matrix(0.06172839506172839,0,0,0.06172839506172839,54.197530864197525,0)" xlink:href="#cd"/></g><path fill="#3a414a" d="M206 0h-36l-40-164L89 0H53L-1-190h32L70-26l43-164h34l41 164 42-164h31" id="ck"/><g id="az"><use transform="matrix(0.06172839506172839,0,0,0.06172839506172839,0,0)" xlink:href="#bo"/><use transform="matrix(0.06172839506172839,0,0,0.06172839506172839,12.345679012345679,0)" xlink:href="#bx"/><use transform="matrix(0.06172839506172839,0,0,0.06172839506172839,24.691358024691358,0)" xlink:href="#by"/><use transform="matrix(0.06172839506172839,0,0,0.06172839506172839,35.80246913580247,0)" xlink:href="#by"/><use transform="matrix(0.06172839506172839,0,0,0.06172839506172839,46.91358024691358,0)" xlink:href="#ck"/><use transform="matrix(0.06172839506172839,0,0,0.06172839506172839,62.901234567901234,0)" xlink:href="#bq"/><use transform="matrix(0.06172839506172839,0,0,0.06172839506172839,75.24691358024691,0)" xlink:href="#bz"/><use transform="matrix(0.06172839506172839,0,0,0.06172839506172839,82.5925925925926,0)" xlink:href="#bu"/><use transform="matrix(0.06172839506172839,0,0,0.06172839506172839,94.93827160493828,0)" xlink:href="#cc"/></g><g id="aA"><use transform="matrix(0.06172839506172839,0,0,0.06172839506172839,0,0)" xlink:href="#bs"/><use transform="matrix(0.06172839506172839,0,0,0.06172839506172839,12.345679012345679,0)" xlink:href="#bn"/><use transform="matrix(0.06172839506172839,0,0,0.06172839506172839,30.80246913580247,0)" xlink:href="#bo"/><use transform="matrix(0.06172839506172839,0,0,0.06172839506172839,43.148148148148145,0)" xlink:href="#bp"/><use transform="matrix(0.06172839506172839,0,0,0.06172839506172839,48.02469135802469,0)" xlink:href="#bq"/><use transform="matrix(0.06172839506172839,0,0,0.06172839506172839,60.37037037037037,0)" xlink:href="#br"/><use transform="matrix(0.06172839506172839,0,0,0.06172839506172839,71.48148148148148,0)" xlink:href="#bs"/><use transform="matrix(0.06172839506172839,0,0,0.06172839506172839,83.82716049382717,0)" xlink:href="#bs"/><use transform="matrix(0.06172839506172839,0,0,0.06172839506172839,96.17283950617285,0)" xlink:href="#cj"/><use transform="matrix(0.06172839506172839,0,0,0.06172839506172839,102.34567901234568,0)" xlink:href="#bu"/><use transform="matrix(0.06172839506172839,0,0,0.06172839506172839,114.69135802469137,0)" xlink:href="#cc"/></g><g id="aB"><use transform="matrix(0.06172839506172839,0,0,0.06172839506172839,0,0)" xlink:href="#bt"/><use transform="matrix(0.06172839506172839,0,0,0.06172839506172839,4.876543209876543,0)" xlink:href="#aS"/><use transform="matrix(0.06172839506172839,0,0,0.06172839506172839,17.22222222222222,0)" xlink:href="#bv"/><use transform="matrix(0.06172839506172839,0,0,0.06172839506172839,23.39506172839506,0)" xlink:href="#cf"/></g><g id="aC"><use transform="matrix(0.06172839506172839,0,0,0.06172839506172839,0,0)" xlink:href="#cg"/><use transform="matrix(0.06172839506172839,0,0,0.06172839506172839,7.345679012345679,0)" xlink:href="#ch"/></g><path fill="#3a414a" d="M190 0L58-211 59 0H30v-248h39L202-35l-2-213h31V0h-41" id="cl"/><g id="aD"><use transform="matrix(0.06172839506172839,0,0,0.06172839506172839,0,0)" xlink:href="#cl"/><use transform="matrix(0.06172839506172839,0,0,0.06172839506172839,15.987654320987653,0)" xlink:href="#bq"/><use transform="matrix(0.06172839506172839,0,0,0.06172839506172839,28.333333333333332,0)" xlink:href="#aS"/><use transform="matrix(0.06172839506172839,0,0,0.06172839506172839,40.67901234567901,0)" xlink:href="#bs"/></g><g id="aE"><use transform="matrix(0.06172839506172839,0,0,0.06172839506172839,0,0)" xlink:href="#aT"/><use transform="matrix(0.06172839506172839,0,0,0.06172839506172839,11.11111111111111,0)" xlink:href="#aU"/><use transform="matrix(0.06172839506172839,0,0,0.06172839506172839,23.45679012345679,0)" xlink:href="#bx"/><use transform="matrix(0.06172839506172839,0,0,0.06172839506172839,35.80246913580247,0)" xlink:href="#aS"/><use transform="matrix(0.06172839506172839,0,0,0.06172839506172839,48.148148148148145,0)" xlink:href="#bA"/><use transform="matrix(0.06172839506172839,0,0,0.06172839506172839,60.49382716049382,0)" xlink:href="#bs"/><use transform="matrix(0.06172839506172839,0,0,0.06172839506172839,72.8395061728395,0)" xlink:href="#ca"/><use transform="matrix(0.06172839506172839,0,0,0.06172839506172839,87.65432098765432,0)" xlink:href="#aR"/><use transform="matrix(0.06172839506172839,0,0,0.06172839506172839,100,0)" xlink:href="#bv"/><use transform="matrix(0.06172839506172839,0,0,0.06172839506172839,106.17283950617283,0)" xlink:href="#aU"/></g><g id="aF"><use transform="matrix(0.06172839506172839,0,0,0.06172839506172839,0,0)" xlink:href="#cb"/><use transform="matrix(0.06172839506172839,0,0,0.06172839506172839,7.345679012345679,0)" xlink:href="#bs"/><use transform="matrix(0.06172839506172839,0,0,0.06172839506172839,19.691358024691358,0)" xlink:href="#bn"/><use transform="matrix(0.06172839506172839,0,0,0.06172839506172839,38.148148148148145,0)" xlink:href="#bo"/><use transform="matrix(0.06172839506172839,0,0,0.06172839506172839,50.49382716049382,0)" xlink:href="#bp"/><use transform="matrix(0.06172839506172839,0,0,0.06172839506172839,55.37037037037037,0)" xlink:href="#bq"/><use transform="matrix(0.06172839506172839,0,0,0.06172839506172839,67.71604938271605,0)" xlink:href="#br"/><use transform="matrix(0.06172839506172839,0,0,0.06172839506172839,78.82716049382717,0)" xlink:href="#bs"/><use transform="matrix(0.06172839506172839,0,0,0.06172839506172839,91.17283950617285,0)" xlink:href="#bs"/><use transform="matrix(0.06172839506172839,0,0,0.06172839506172839,103.51851851851853,0)" xlink:href="#cj"/><use transform="matrix(0.06172839506172839,0,0,0.06172839506172839,109.69135802469137,0)" xlink:href="#bu"/><use transform="matrix(0.06172839506172839,0,0,0.06172839506172839,122.03703703703705,0)" xlink:href="#cc"/></g><g id="aG"><use transform="matrix(0.06172839506172839,0,0,0.06172839506172839,0,0)" xlink:href="#bt"/><use transform="matrix(0.06172839506172839,0,0,0.06172839506172839,4.876543209876543,0)" xlink:href="#aS"/><use transform="matrix(0.06172839506172839,0,0,0.06172839506172839,17.22222222222222,0)" xlink:href="#bv"/><use transform="matrix(0.06172839506172839,0,0,0.06172839506172839,23.39506172839506,0)" xlink:href="#cd"/></g><g id="aH"><use transform="matrix(0.06172839506172839,0,0,0.06172839506172839,0,0)" xlink:href="#by"/><use transform="matrix(0.06172839506172839,0,0,0.06172839506172839,11.11111111111111,0)" xlink:href="#bv"/><use transform="matrix(0.06172839506172839,0,0,0.06172839506172839,17.28395061728395,0)" xlink:href="#bz"/><use transform="matrix(0.06172839506172839,0,0,0.06172839506172839,24.629629629629626,0)" xlink:href="#bt"/><use transform="matrix(0.06172839506172839,0,0,0.06172839506172839,29.50617283950617,0)" xlink:href="#aS"/><use transform="matrix(0.06172839506172839,0,0,0.06172839506172839,41.85185185185185,0)" xlink:href="#bA"/><use transform="matrix(0.06172839506172839,0,0,0.06172839506172839,54.197530864197525,0)" xlink:href="#cf"/></g><g id="aI"><use transform="matrix(0.06172839506172839,0,0,0.06172839506172839,0,0)" xlink:href="#bx"/><use transform="matrix(0.06172839506172839,0,0,0.06172839506172839,12.345679012345679,0)" xlink:href="#aR"/><use transform="matrix(0.06172839506172839,0,0,0.06172839506172839,24.691358024691358,0)" xlink:href="#bv"/><use transform="matrix(0.06172839506172839,0,0,0.06172839506172839,30.864197530864196,0)" xlink:href="#aU"/><use transform="matrix(0.06172839506172839,0,0,0.06172839506172839,43.20987654320987,0)" xlink:href="#bs"/><use transform="matrix(0.06172839506172839,0,0,0.06172839506172839,55.55555555555555,0)" xlink:href="#aS"/><use transform="matrix(0.06172839506172839,0,0,0.06172839506172839,67.90123456790123,0)" xlink:href="#bv"/><use transform="matrix(0.06172839506172839,0,0,0.06172839506172839,74.07407407407406,0)" xlink:href="#bt"/><use transform="matrix(0.06172839506172839,0,0,0.06172839506172839,78.9506172839506,0)" xlink:href="#aT"/><use transform="matrix(0.06172839506172839,0,0,0.06172839506172839,90.06172839506172,0)" xlink:href="#bx"/><use transform="matrix(0.06172839506172839,0,0,0.06172839506172839,102.4074074074074,0)" xlink:href="#bv"/><use transform="matrix(0.06172839506172839,0,0,0.06172839506172839,108.58024691358024,0)" xlink:href="#bs"/></g><path fill="#3a414a" d="M68-36c1 33-1 63-14 82H32c9-13 17-26 17-46H33v-36h35zM33-154v-36h35v36H33" id="cm"/><g id="aJ"><use transform="matrix(0.06172839506172839,0,0,0.06172839506172839,0,0)" xlink:href="#cb"/><use transform="matrix(0.06172839506172839,0,0,0.06172839506172839,7.345679012345679,0)" xlink:href="#aR"/><use transform="matrix(0.06172839506172839,0,0,0.06172839506172839,19.691358024691358,0)" xlink:href="#by"/><use transform="matrix(0.06172839506172839,0,0,0.06172839506172839,30.80246913580247,0)" xlink:href="#bs"/><use transform="matrix(0.06172839506172839,0,0,0.06172839506172839,43.148148148148145,0)" xlink:href="#bz"/><use transform="matrix(0.06172839506172839,0,0,0.06172839506172839,50.49382716049382,0)" xlink:href="#aS"/><use transform="matrix(0.06172839506172839,0,0,0.06172839506172839,62.8395061728395,0)" xlink:href="#bx"/><use transform="matrix(0.06172839506172839,0,0,0.06172839506172839,75.18518518518518,0)" xlink:href="#bn"/><use transform="matrix(0.06172839506172839,0,0,0.06172839506172839,93.64197530864196,0)" xlink:href="#bs"/><use transform="matrix(0.06172839506172839,0,0,0.06172839506172839,105.98765432098764,0)" xlink:href="#cm"/></g><g id="aK"><use transform="matrix(0.06172839506172839,0,0,0.06172839506172839,0,0)" xlink:href="#by"/><use transform="matrix(0.06172839506172839,0,0,0.06172839506172839,11.11111111111111,0)" xlink:href="#bv"/><use transform="matrix(0.06172839506172839,0,0,0.06172839506172839,17.28395061728395,0)" xlink:href="#bz"/><use transform="matrix(0.06172839506172839,0,0,0.06172839506172839,24.629629629629626,0)" xlink:href="#bt"/><use transform="matrix(0.06172839506172839,0,0,0.06172839506172839,29.50617283950617,0)" xlink:href="#aS"/><use transform="matrix(0.06172839506172839,0,0,0.06172839506172839,41.85185185185185,0)" xlink:href="#bA"/><use transform="matrix(0.06172839506172839,0,0,0.06172839506172839,54.197530864197525,0)" xlink:href="#cd"/></g><g id="aL"><use transform="matrix(0.06172839506172839,0,0,0.06172839506172839,0,0)" xlink:href="#bo"/><use transform="matrix(0.06172839506172839,0,0,0.06172839506172839,12.345679012345679,0)" xlink:href="#bx"/><use transform="matrix(0.06172839506172839,0,0,0.06172839506172839,24.691358024691358,0)" xlink:href="#by"/><use transform="matrix(0.06172839506172839,0,0,0.06172839506172839,35.80246913580247,0)" xlink:href="#by"/><use transform="matrix(0.06172839506172839,0,0,0.06172839506172839,46.91358024691358,0)" xlink:href="#ck"/><use transform="matrix(0.06172839506172839,0,0,0.06172839506172839,62.901234567901234,0)" xlink:href="#bq"/><use transform="matrix(0.06172839506172839,0,0,0.06172839506172839,75.24691358024691,0)" xlink:href="#bz"/><use transform="matrix(0.06172839506172839,0,0,0.06172839506172839,82.5925925925926,0)" xlink:href="#bu"/><use transform="matrix(0.06172839506172839,0,0,0.06172839506172839,94.93827160493828,0)" xlink:href="#cc"/></g><g id="aM"><use transform="matrix(0.06172839506172839,0,0,0.06172839506172839,0,0)" xlink:href="#by"/><use transform="matrix(0.06172839506172839,0,0,0.06172839506172839,11.11111111111111,0)" xlink:href="#bv"/><use transform="matrix(0.06172839506172839,0,0,0.06172839506172839,17.28395061728395,0)" xlink:href="#bz"/><use transform="matrix(0.06172839506172839,0,0,0.06172839506172839,24.629629629629626,0)" xlink:href="#bt"/><use transform="matrix(0.06172839506172839,0,0,0.06172839506172839,29.50617283950617,0)" xlink:href="#aS"/><use transform="matrix(0.06172839506172839,0,0,0.06172839506172839,41.85185185185185,0)" xlink:href="#bA"/><use transform="matrix(0.06172839506172839,0,0,0.06172839506172839,54.197530864197525,0)" xlink:href="#cf"/></g><g id="aN"><use transform="matrix(0.06172839506172839,0,0,0.06172839506172839,0,0)" xlink:href="#cg"/><use transform="matrix(0.06172839506172839,0,0,0.06172839506172839,7.345679012345679,0)" xlink:href="#ch"/></g><g id="aO"><use transform="matrix(0.06172839506172839,0,0,0.06172839506172839,0,0)" xlink:href="#bs"/><use transform="matrix(0.06172839506172839,0,0,0.06172839506172839,12.345679012345679,0)" xlink:href="#bn"/><use transform="matrix(0.06172839506172839,0,0,0.06172839506172839,30.80246913580247,0)" xlink:href="#bo"/><use transform="matrix(0.06172839506172839,0,0,0.06172839506172839,43.148148148148145,0)" xlink:href="#bp"/><use transform="matrix(0.06172839506172839,0,0,0.06172839506172839,48.02469135802469,0)" xlink:href="#bq"/><use transform="matrix(0.06172839506172839,0,0,0.06172839506172839,60.37037037037037,0)" xlink:href="#br"/><use transform="matrix(0.06172839506172839,0,0,0.06172839506172839,71.48148148148148,0)" xlink:href="#bs"/><use transform="matrix(0.06172839506172839,0,0,0.06172839506172839,83.82716049382717,0)" xlink:href="#bs"/><use transform="matrix(0.06172839506172839,0,0,0.06172839506172839,96.17283950617285,0)" xlink:href="#cj"/><use transform="matrix(0.06172839506172839,0,0,0.06172839506172839,102.34567901234568,0)" xlink:href="#bu"/><use transform="matrix(0.06172839506172839,0,0,0.06172839506172839,114.69135802469137,0)" xlink:href="#cc"/></g><g id="aP"><use transform="matrix(0.06172839506172839,0,0,0.06172839506172839,0,0)" xlink:href="#bt"/><use transform="matrix(0.06172839506172839,0,0,0.06172839506172839,4.876543209876543,0)" xlink:href="#aS"/><use transform="matrix(0.06172839506172839,0,0,0.06172839506172839,17.22222222222222,0)" xlink:href="#bv"/></g></defs></g></svg>